<svg width="222" height="76" viewBox="0 0 222 76" fill="none" xmlns="http://www.w3.org/2000/svg">
<path d="M90.952 30V7.28H99.688C102.205 7.28 104.307 7.792 105.992 8.816C107.699 9.81867 108.979 11.184 109.832 12.912C110.707 14.6187 111.144 16.5173 111.144 18.608C111.144 20.912 110.664 22.9173 109.704 24.624C108.765 26.3307 107.432 27.6533 105.704 28.592C103.997 29.5307 101.992 30 99.688 30H90.952ZM104.808 18.608C104.808 17.4347 104.605 16.4107 104.2 15.536C103.795 14.64 103.208 13.9467 102.44 13.456C101.672 12.9653 100.755 12.72 99.688 12.72H97.192V24.56H99.688C100.776 24.56 101.693 24.304 102.44 23.792C103.208 23.28 103.795 22.576 104.2 21.68C104.605 20.7627 104.808 19.7387 104.808 18.608ZM124.71 18.352C123.537 18.352 122.47 18.48 121.51 18.736C120.55 18.992 119.835 19.4187 119.366 20.016V30H113.286V13.168H118.854V16.368C119.451 15.2373 120.198 14.3733 121.094 13.776C121.99 13.1573 122.939 12.848 123.942 12.848C124.177 12.848 124.337 12.848 124.422 12.848C124.529 12.848 124.625 12.8587 124.71 12.88V18.352ZM126.599 30V13.168H132.679V30H126.599ZM126.599 11.76V6.64H132.679V11.76H126.599ZM139.915 30L134.251 13.168H140.491L143.499 24.592L146.539 13.168H152.203L146.539 30H139.915ZM153.786 30V13.168H159.866V30H153.786ZM153.786 11.76V6.64H159.866V11.76H153.786ZM179.87 30H173.79V20.528C173.79 19.696 173.598 19.0987 173.214 18.736C172.852 18.352 172.425 18.16 171.934 18.16C171.593 18.16 171.23 18.2667 170.846 18.48C170.462 18.672 170.11 18.9493 169.79 19.312C169.47 19.6747 169.214 20.0907 169.022 20.56V30H162.942V13.168H168.414V15.664C168.82 15.0453 169.332 14.5333 169.95 14.128C170.569 13.7013 171.284 13.3813 172.094 13.168C172.905 12.9547 173.79 12.848 174.75 12.848C175.902 12.848 176.82 13.0507 177.502 13.456C178.185 13.8613 178.697 14.384 179.038 15.024C179.38 15.664 179.604 16.336 179.71 17.04C179.817 17.7227 179.87 18.352 179.87 18.928V30ZM189.281 30C188.193 30 187.191 29.7867 186.273 29.36C185.377 28.9333 184.609 28.336 183.969 27.568C183.329 26.8 182.828 25.904 182.465 24.88C182.124 23.856 181.953 22.7467 181.953 21.552C181.953 20.2933 182.145 19.1413 182.529 18.096C182.913 17.0293 183.447 16.1013 184.129 15.312C184.833 14.5227 185.665 13.9147 186.625 13.488C187.585 13.0613 188.641 12.848 189.793 12.848C190.988 12.848 192.044 13.0933 192.961 13.584C193.9 14.0533 194.636 14.7467 195.169 15.664V13.168H200.449V28.464C200.449 30.2133 200.023 31.7387 199.169 33.04C198.316 34.3413 197.121 35.344 195.585 36.048C194.049 36.7733 192.257 37.136 190.209 37.136C188.439 37.136 186.881 36.8587 185.537 36.304C184.215 35.7493 183.041 34.9493 182.017 33.904L185.217 30.576C185.836 31.152 186.572 31.632 187.425 32.016C188.3 32.4213 189.228 32.624 190.209 32.624C190.956 32.624 191.639 32.4853 192.257 32.208C192.897 31.9307 193.409 31.4827 193.793 30.864C194.177 30.2667 194.369 29.4667 194.369 28.464V27.376C193.9 28.2507 193.196 28.912 192.257 29.36C191.34 29.7867 190.348 30 189.281 30ZM191.457 25.2C191.756 25.2 192.033 25.168 192.289 25.104C192.567 25.0187 192.823 24.912 193.057 24.784C193.292 24.6347 193.516 24.4533 193.729 24.24C193.964 24.0053 194.177 23.7493 194.369 23.472V20.464C194.177 19.952 193.911 19.5147 193.569 19.152C193.228 18.768 192.855 18.48 192.449 18.288C192.044 18.0747 191.628 17.968 191.201 17.968C190.775 17.968 190.369 18.064 189.985 18.256C189.623 18.448 189.303 18.7253 189.025 19.088C188.748 19.4293 188.535 19.824 188.385 20.272C188.236 20.72 188.161 21.2 188.161 21.712C188.161 22.224 188.236 22.6933 188.385 23.12C188.556 23.5467 188.791 23.92 189.089 24.24C189.388 24.5387 189.74 24.7733 190.145 24.944C190.551 25.1147 190.988 25.2 191.457 25.2ZM104.712 52.704C104.712 52.704 104.531 52.5973 104.168 52.384C103.805 52.1707 103.325 51.936 102.728 51.68C102.131 51.4027 101.48 51.1573 100.776 50.944C100.072 50.7307 99.3787 50.624 98.696 50.624C98.1627 50.624 97.7253 50.7093 97.384 50.88C97.0427 51.0507 96.872 51.3387 96.872 51.744C96.872 52.128 97.0427 52.4373 97.384 52.672C97.7253 52.9067 98.2053 53.12 98.824 53.312C99.464 53.504 100.221 53.7387 101.096 54.016C102.504 54.4427 103.72 54.9333 104.744 55.488C105.768 56.0427 106.557 56.7573 107.112 57.632C107.667 58.4853 107.944 59.6267 107.944 61.056C107.944 62.4213 107.699 63.5733 107.208 64.512C106.717 65.4293 106.056 66.1653 105.224 66.72C104.392 67.2747 103.464 67.68 102.44 67.936C101.416 68.1707 100.371 68.288 99.304 68.288C98.216 68.288 97.0747 68.1813 95.88 67.968C94.7067 67.7333 93.5653 67.424 92.456 67.04C91.3467 66.6347 90.3333 66.1653 89.416 65.632L92.104 60.16C92.104 60.16 92.3173 60.288 92.744 60.544C93.1707 60.8 93.736 61.088 94.44 61.408C95.144 61.728 95.9227 62.016 96.776 62.272C97.6507 62.528 98.5253 62.656 99.4 62.656C100.083 62.656 100.552 62.5707 100.808 62.4C101.085 62.208 101.224 61.9627 101.224 61.664C101.224 61.216 100.989 60.8747 100.52 60.64C100.051 60.384 99.432 60.1493 98.664 59.936C97.9173 59.7013 97.0853 59.4347 96.168 59.136C94.8453 58.688 93.7573 58.1867 92.904 57.632C92.0507 57.056 91.4213 56.384 91.016 55.616C90.6107 54.8267 90.408 53.8773 90.408 52.768C90.408 51.0827 90.8027 49.6747 91.592 48.544C92.3813 47.4133 93.416 46.56 94.696 45.984C95.9973 45.3867 97.3947 45.088 98.888 45.088C99.9973 45.088 101.064 45.2267 102.088 45.504C103.133 45.76 104.104 46.08 105 46.464C105.917 46.848 106.717 47.2107 107.4 47.552L104.712 52.704ZM118.606 68.32C117.113 68.32 115.79 68.0853 114.638 67.616C113.507 67.1467 112.547 66.5067 111.758 65.696C110.969 64.864 110.371 63.9253 109.966 62.88C109.561 61.8347 109.358 60.736 109.358 59.584C109.358 58.048 109.71 56.6187 110.414 55.296C111.139 53.952 112.185 52.8747 113.55 52.064C114.937 51.2533 116.622 50.848 118.606 50.848C120.633 50.848 122.339 51.2747 123.726 52.128C125.113 52.9813 126.147 54.08 126.83 55.424L120.91 57.216C120.633 56.8107 120.291 56.5013 119.886 56.288C119.502 56.0747 119.065 55.968 118.574 55.968C118.019 55.968 117.518 56.1173 117.07 56.416C116.622 56.6933 116.259 57.0987 115.982 57.632C115.726 58.1653 115.598 58.816 115.598 59.584C115.598 60.3307 115.726 60.9813 115.982 61.536C116.259 62.0693 116.622 62.4853 117.07 62.784C117.518 63.0613 118.019 63.2 118.574 63.2C118.915 63.2 119.225 63.1573 119.502 63.072C119.779 62.9653 120.035 62.816 120.27 62.624C120.526 62.432 120.739 62.208 120.91 61.952L126.83 63.744C126.382 64.64 125.763 65.4293 124.974 66.112C124.206 66.7947 123.289 67.3387 122.222 67.744C121.177 68.128 119.971 68.32 118.606 68.32ZM145.683 68H139.603V58.528C139.603 57.696 139.411 57.0987 139.027 56.736C138.664 56.352 138.205 56.16 137.651 56.16C137.395 56.16 137.075 56.256 136.691 56.448C136.328 56.64 135.976 56.9173 135.635 57.28C135.293 57.6427 135.027 58.0693 134.835 58.56V68H128.755V44.64H134.835V53.664C135.432 52.7467 136.211 52.0533 137.171 51.584C138.152 51.0933 139.229 50.848 140.403 50.848C141.597 50.848 142.547 51.0507 143.251 51.456C143.955 51.84 144.477 52.3413 144.819 52.96C145.16 53.5787 145.384 54.24 145.491 54.944C145.619 55.648 145.683 56.3093 145.683 56.928V68ZM156.918 68.32C155.424 68.32 154.102 68.0853 152.95 67.616C151.798 67.1467 150.827 66.5067 150.038 65.696C149.27 64.864 148.683 63.9253 148.278 62.88C147.894 61.8347 147.702 60.736 147.702 59.584C147.702 58.432 147.894 57.3333 148.278 56.288C148.683 55.2213 149.27 54.2827 150.038 53.472C150.827 52.6613 151.798 52.0213 152.95 51.552C154.102 51.0827 155.424 50.848 156.918 50.848C158.432 50.848 159.755 51.0827 160.886 51.552C162.038 52.0213 162.998 52.6613 163.766 53.472C164.555 54.2827 165.142 55.2213 165.526 56.288C165.931 57.3333 166.134 58.432 166.134 59.584C166.134 60.736 165.931 61.8347 165.526 62.88C165.142 63.9253 164.555 64.864 163.766 65.696C162.998 66.5067 162.038 67.1467 160.886 67.616C159.755 68.0853 158.432 68.32 156.918 68.32ZM153.942 59.584C153.942 60.3307 154.07 60.9813 154.326 61.536C154.582 62.0693 154.934 62.4853 155.382 62.784C155.83 63.0613 156.342 63.2 156.918 63.2C157.494 63.2 158.006 63.0613 158.454 62.784C158.902 62.4853 159.254 62.0693 159.51 61.536C159.766 60.9813 159.894 60.3307 159.894 59.584C159.894 58.8373 159.766 58.1973 159.51 57.664C159.254 57.1093 158.902 56.6933 158.454 56.416C158.006 56.1173 157.494 55.968 156.918 55.968C156.342 55.968 155.83 56.1173 155.382 56.416C154.934 56.6933 154.582 57.1093 154.326 57.664C154.07 58.1973 153.942 58.8373 153.942 59.584ZM176.574 68.32C175.081 68.32 173.758 68.0853 172.606 67.616C171.454 67.1467 170.483 66.5067 169.694 65.696C168.926 64.864 168.339 63.9253 167.934 62.88C167.55 61.8347 167.358 60.736 167.358 59.584C167.358 58.432 167.55 57.3333 167.934 56.288C168.339 55.2213 168.926 54.2827 169.694 53.472C170.483 52.6613 171.454 52.0213 172.606 51.552C173.758 51.0827 175.081 50.848 176.574 50.848C178.089 50.848 179.411 51.0827 180.542 51.552C181.694 52.0213 182.654 52.6613 183.422 53.472C184.211 54.2827 184.798 55.2213 185.182 56.288C185.587 57.3333 185.79 58.432 185.79 59.584C185.79 60.736 185.587 61.8347 185.182 62.88C184.798 63.9253 184.211 64.864 183.422 65.696C182.654 66.5067 181.694 67.1467 180.542 67.616C179.411 68.0853 178.089 68.32 176.574 68.32ZM173.598 59.584C173.598 60.3307 173.726 60.9813 173.982 61.536C174.238 62.0693 174.59 62.4853 175.038 62.784C175.486 63.0613 175.998 63.2 176.574 63.2C177.15 63.2 177.662 63.0613 178.11 62.784C178.558 62.4853 178.91 62.0693 179.166 61.536C179.422 60.9813 179.55 60.3307 179.55 59.584C179.55 58.8373 179.422 58.1973 179.166 57.664C178.91 57.1093 178.558 56.6933 178.11 56.416C177.662 56.1173 177.15 55.968 176.574 55.968C175.998 55.968 175.486 56.1173 175.038 56.416C174.59 56.6933 174.238 57.1093 173.982 57.664C173.726 58.1973 173.598 58.8373 173.598 59.584ZM187.814 44.64H193.894V61.312C193.894 61.9307 194.022 62.4107 194.278 62.752C194.556 63.072 194.95 63.232 195.462 63.232C195.718 63.232 195.996 63.1893 196.294 63.104C196.593 63.0187 196.87 62.9013 197.126 62.752L197.894 67.232C197.169 67.5733 196.348 67.84 195.43 68.032C194.534 68.224 193.681 68.32 192.87 68.32C191.249 68.32 190.001 67.904 189.126 67.072C188.252 66.2187 187.814 65.0133 187.814 63.456V44.64ZM206.069 68.32C204.597 68.32 203.147 68.0853 201.717 67.616C200.309 67.1253 199.115 66.4213 198.133 65.504L200.213 61.76C201.259 62.4427 202.261 62.976 203.221 63.36C204.203 63.744 205.088 63.936 205.877 63.936C206.325 63.936 206.656 63.8827 206.869 63.776C207.083 63.648 207.189 63.4453 207.189 63.168C207.189 62.976 207.115 62.816 206.965 62.688C206.816 62.56 206.571 62.432 206.229 62.304C205.909 62.176 205.493 62.0373 204.981 61.888C203.659 61.4187 202.549 60.9813 201.653 60.576C200.779 60.1707 200.117 59.68 199.669 59.104C199.243 58.5067 199.029 57.7173 199.029 56.736C199.029 55.584 199.317 54.5707 199.893 53.696C200.469 52.8 201.291 52.096 202.357 51.584C203.445 51.072 204.747 50.816 206.261 50.816C207.392 50.816 208.523 50.9973 209.653 51.36C210.805 51.7013 211.915 52.3307 212.981 53.248L210.677 56.96C209.611 56.2987 208.704 55.8293 207.957 55.552C207.232 55.2747 206.581 55.136 206.005 55.136C205.728 55.136 205.483 55.168 205.269 55.232C205.077 55.296 204.928 55.392 204.821 55.52C204.715 55.648 204.661 55.8187 204.661 56.032C204.661 56.2453 204.736 56.4267 204.885 56.576C205.035 56.704 205.269 56.832 205.589 56.96C205.909 57.0667 206.315 57.1947 206.805 57.344C208.256 57.7707 209.44 58.208 210.357 58.656C211.275 59.0827 211.947 59.6053 212.373 60.224C212.821 60.8427 213.045 61.6533 213.045 62.656C213.045 64.4267 212.416 65.8133 211.157 66.816C209.92 67.8187 208.224 68.32 206.069 68.32ZM215.413 68V62.112H220.341V68H215.413Z" fill="white"/>
<path d="M54.2207 32.2598C52.9825 32.2598 51.7831 31.8917 50.7454 31.1906L43.5977 26.4035H33.4199V69.3033H42.7496V56.15C42.7496 50.4152 47.4152 45.7496 53.15 45.7496H66.2565L66.5642 32.2598H54.2207Z" fill="#FF8F1F"/>
<path d="M27.4025 26.4035L20.2477 31.1954C19.2171 31.8917 18.0177 32.2598 16.7795 32.2598H4.46436L4.73879 45.7496H17.8502C23.585 45.7496 28.2506 50.4152 28.2506 56.15V69.3033H35.5002V26.4035H27.4025Z" fill="#FF8F1F"/>
<path d="M35.5 3L31.3398 8.2002L35.5 13.4004C49.34 13.4004 60.5996 24.66 60.5996 38.5C60.5996 52.34 49.34 63.5996 35.5 63.5996L31.3398 68.7998L35.5 74C55.1061 74 71 58.1061 71 38.5C71 18.8939 55.1061 3 35.5 3Z" fill="#FF8F1F"/>
<path d="M10.4004 38.5C10.4004 24.66 21.66 13.4004 35.5 13.4004V3C15.8939 3 0 18.8939 0 38.5C0 58.1061 15.8939 74 35.5 74V63.5996C21.66 63.5996 10.4004 52.34 10.4004 38.5Z" fill="#FF8F1F"/>
<path d="M35.5 23.9395L28.2197 38.5L35.5 53.0605C43.5416 53.0605 50.0605 46.5416 50.0605 38.5C50.0605 30.4584 43.5416 23.9395 35.5 23.9395Z" fill="white"/>
<path d="M20.9395 38.5C20.9395 46.5416 27.4584 53.0605 35.5 53.0605V23.9395C27.4584 23.9395 20.9395 30.4584 20.9395 38.5Z" fill="white"/>
<path d="M35.5 32.2598L32.3799 38.5L35.5 44.7402C38.9464 44.7402 41.7402 41.9464 41.7402 38.5C41.7402 35.0536 38.9464 32.2598 35.5 32.2598Z" fill="black"/>
<path d="M29.2598 38.5C29.2598 41.9464 32.0536 44.7402 35.5 44.7402V32.2598C32.0536 32.2598 29.2598 35.0536 29.2598 38.5Z" fill="black"/>
</svg>
