<svg width="27" height="20" viewBox="0 0 27 20" fill="none" xmlns="http://www.w3.org/2000/svg">
<path d="M22.1491 3.06415L7.06413 18.1491C6.81408 18.3991 6.46253 18.5272 6.0868 18.5051C5.71108 18.483 5.34197 18.3125 5.06066 18.0312C4.77936 17.7499 4.6089 17.3808 4.5868 17.0051C4.5647 16.6294 4.69276 16.2778 4.94281 16.0278L20.0278 0.942828C20.2778 0.692781 20.6294 0.564721 21.0051 0.586822C21.3808 0.608923 21.7499 0.779376 22.0312 1.06068C22.3125 1.34198 22.483 1.7111 22.5051 2.08682C22.5272 2.46255 22.3991 2.8141 22.1491 3.06415Z" fill="#E1E1E1"/>
<path d="M5.48871 3.06415L20.5737 18.1491C20.8237 18.3991 21.1753 18.5272 21.551 18.5051C21.9267 18.483 22.2958 18.3125 22.5771 18.0312C22.8584 17.7499 23.0289 17.3808 23.051 17.0051C23.0731 16.6294 22.945 16.2778 22.695 16.0278L7.61003 0.942828C7.35998 0.692781 7.00842 0.564721 6.6327 0.586822C6.25698 0.608923 5.88786 0.779376 5.60656 1.06068C5.32525 1.34198 5.1548 1.7111 5.1327 2.08682C5.1106 2.46255 5.23866 2.8141 5.48871 3.06415Z" fill="#E1E1E1"/>
</svg>
