<svg width="30" height="24" viewBox="0 0 30 24" fill="none" xmlns="http://www.w3.org/2000/svg">
<path d="M28.3333 4H1.66667C1.22464 4 0.800716 3.80246 0.488156 3.45082C0.175595 3.09919 0 2.62228 0 2.125C0 1.62772 0.175595 1.15081 0.488156 0.799175C0.800716 0.447544 1.22464 0.25 1.66667 0.25H28.3333C28.7754 0.25 29.1993 0.447544 29.5118 0.799175C29.8244 1.15081 30 1.62772 30 2.125C30 2.62228 29.8244 3.09919 29.5118 3.45082C29.1993 3.80246 28.7754 4 28.3333 4Z" fill="#E1E1E1"/>
<path d="M28.6111 14H6.38889C6.02053 14 5.66726 13.8025 5.4068 13.4508C5.14633 13.0992 5 12.6223 5 12.125C5 11.6277 5.14633 11.1508 5.4068 10.7992C5.66726 10.4475 6.02053 10.25 6.38889 10.25H28.6111C28.9795 10.25 29.3327 10.4475 29.5932 10.7992C29.8537 11.1508 30 11.6277 30 12.125C30 12.6223 29.8537 13.0992 29.5932 13.4508C29.3327 13.8025 28.9795 14 28.6111 14Z" fill="#E1E1E1"/>
<path d="M28.8889 24H11.1111C10.8164 24 10.5338 23.8025 10.3254 23.4508C10.1171 23.0992 10 22.6223 10 22.125C10 21.6277 10.1171 21.1508 10.3254 20.7992C10.5338 20.4475 10.8164 20.25 11.1111 20.25H28.8889C29.1836 20.25 29.4662 20.4475 29.6746 20.7992C29.8829 21.1508 30 21.6277 30 22.125C30 22.6223 29.8829 23.0992 29.6746 23.4508C29.4662 23.8025 29.1836 24 28.8889 24Z" fill="#E1E1E1"/>
</svg>
