<svg width="23" height="23" viewBox="0 0 23 23" fill="none" xmlns="http://www.w3.org/2000/svg">
<g clip-path="url(#clip0_219_515)">
<path d="M10.2222 20.4444H1.27779C0.572076 20.4444 0 19.8723 0 19.1666C0 18.4609 0.572076 17.8888 1.27779 17.8888H10.2222C10.9279 17.8888 11.5 18.4609 11.5 19.1666C11.5 19.8723 10.9279 20.4444 10.2222 20.4444ZM21.7222 12.7778H1.27779C0.572076 12.7778 0 12.2057 0 11.5C0 10.7943 0.572076 10.2222 1.27779 10.2222H21.7222C22.4279 10.2222 23 10.7943 23 11.5C23 12.2057 22.4279 12.7778 21.7222 12.7778ZM21.7222 5.11113H1.27779C0.572076 5.11113 0 4.53905 0 3.83334C0 3.12762 0.572076 2.55554 1.27779 2.55554H21.7222C22.4279 2.55554 23 3.12762 23 3.83334C23 4.53905 22.4279 5.11113 21.7222 5.11113Z" fill="white"/>
</g>
<defs>
<clipPath id="clip0_219_515">
<rect width="23" height="23" fill="white"/>
</clipPath>
</defs>
</svg>
