<?xml version="1.0" encoding="utf-8"?>
<!-- Generator: Adobe Illustrator 18.0.0, SVG Export Plug-In . SVG Version: 6.00 Build 0)  -->
<!DOCTYPE svg PUBLIC "-//W3C//DTD SVG 1.1//EN" "http://www.w3.org/Graphics/SVG/1.1/DTD/svg11.dtd">
<svg version="1.1" id="Layer_1" xmlns="http://www.w3.org/2000/svg" xmlns:xlink="http://www.w3.org/1999/xlink" x="0px" y="0px"
	 viewBox="0 0 842.1 16.9" enable-background="new 0 0 842.1 16.9" xml:space="preserve">
<g>
	<path fill="#E4C590" d="M557.3-0.7c0.4,0,0.7,0,1.1,0c-0.1,0.2-0.2,0.3-0.3,0.5c2.6,2.6,5.2,5.2,7.7,7.7c1.2-1.2,2.3-2.3,3.5-3.5
		c-1.3-1.3-2.8-2.8-4.2-4.2c0.1-0.2,0.2-0.3,0.3-0.5c0.4,0,0.8,0,1.2,0c-0.1,0.2-0.3,0.3-0.3,0.5c1.2,1.2,2.4,2.4,3.6,3.6
		c1.1-1.1,2.3-2.3,3.5-3.5c-0.2-0.2-0.3-0.3-0.5-0.5c0.7,0,1.4,0,2.1,0c-0.1,0.1-0.1,0.2-0.2,0.4c0.3,0,0.4,0,0.6,0c2,0,4.1,0,6.1,0
		c0.3,0,0.5-0.1,0.7-0.4c0.4,0,0.7,0,1.1,0c0,0.1-0.1,0.2-0.2,0.4c0.2,0,0.4,0,0.5,0c2,0,4,0,6,0c0.3,0,0.6,0,0.8-0.4
		c0.4,0,0.7,0,1.1,0c0,0.1-0.1,0.2-0.2,0.4c0.2,0,0.4,0,0.6,0c2,0,4,0,6,0c0.3,0,0.7,0,0.8-0.4c0.4,0,0.7,0,1.1,0
		c0,0.1-0.1,0.2-0.2,0.3c2.2,0,4.4,0,6.6,0c0-0.2-0.1-0.2-0.2-0.3c0.7,0,1.3,0,2,0c-0.2,0.2-0.4,0.4-0.5,0.6
		c1.2,1.2,2.4,2.4,3.5,3.5c1.3-1.3,2.7-2.7,4.2-4c0.4,0,0.7,0,1.1,0c-0.1,0.1-0.2,0.3-0.3,0.4c-1.3,1.3-2.7,2.7-4,4
		c-0.1,0.1-0.2,0.2-0.3,0.3c1.2,1.2,2.4,2.4,3.6,3.6c0.3-0.3,0.6-0.7,0.9-1c2.4-2.4,4.9-4.9,7.3-7.3c0.4,0,0.7,0,1.1,0
		c-0.1,0.2-0.2,0.3-0.3,0.4c-2.7,2.7-5.4,5.4-8.2,8.2c-0.1,0.1-0.2,0.2-0.3,0.3c1.2,1.2,2.4,2.4,3.5,3.6c4.2-4.2,8.3-8.3,12.5-12.5
		c0.4,0,0.7,0,1.1,0c-0.1,0.2-0.2,0.3-0.4,0.5c-4.1,4.1-8.2,8.2-12.3,12.3c-0.1,0.1-0.2,0.3-0.3,0.3c1.2,1.2,2.4,2.4,3.5,3.5
		c5.3-5.3,10.7-10.7,16.1-16.1c-0.1-0.1-0.2-0.3-0.3-0.4c0.4,0,0.7,0,1.1,0c0.1,0,0.3,0.1,0.4,0.1c2.2,0,4.4,0,6.5,0
		c0.1,0,0.3,0,0.4-0.1c0.7,0,1.4,0,2.1,0c-0.2,0.2-0.3,0.3-0.4,0.5c4,4,8,8,11.9,11.9c1.2-1.1,2.3-2.3,3.5-3.5
		c-2.7-2.7-5.5-5.5-8.4-8.3c0.2-0.2,0.3-0.3,0.4-0.5c0.4,0,0.7,0,1.1,0c-0.1,0.2-0.2,0.3-0.3,0.5c2.6,2.6,5.2,5.2,7.7,7.7
		c1.2-1.2,2.3-2.3,3.5-3.5c-1.3-1.3-2.8-2.8-4.2-4.2c0.1-0.2,0.2-0.3,0.3-0.5c0.4,0,0.8,0,1.2,0c-0.1,0.2-0.3,0.3-0.3,0.5
		c1.2,1.2,2.4,2.4,3.6,3.6c1.1-1.1,2.3-2.3,3.5-3.5c-0.2-0.2-0.3-0.3-0.5-0.5c0.7,0,1.4,0,2.1,0c-0.1,0.1-0.1,0.2-0.2,0.4
		c0.3,0,0.4,0,0.6,0c2,0,4.1,0,6.1,0c0.3,0,0.5-0.1,0.7-0.4c0.4,0,0.7,0,1.1,0c0,0.1-0.1,0.2-0.2,0.4c0.2,0,0.4,0,0.5,0c2,0,4,0,6,0
		c0.3,0,0.6,0,0.8-0.4c0.4,0,0.7,0,1.1,0c0,0.1-0.1,0.2-0.2,0.4c0.2,0,0.4,0,0.6,0c2,0,4,0,6,0c0.3,0,0.7,0,0.8-0.4
		c0.4,0,0.7,0,1.1,0c0,0.1-0.1,0.2-0.2,0.3c2.2,0,4.4,0,6.6,0c0-0.2-0.1-0.2-0.2-0.3c0.7,0,1.3,0,2,0c-0.2,0.2-0.4,0.4-0.5,0.6
		c1.2,1.2,2.4,2.4,3.5,3.5c1.3-1.3,2.7-2.7,4.2-4c0.4,0,0.7,0,1.1,0c-0.1,0.1-0.2,0.3-0.3,0.4c-1.3,1.3-2.7,2.7-4,4
		c-0.1,0.1-0.2,0.2-0.3,0.3c1.2,1.2,2.4,2.4,3.6,3.6c0.3-0.3,0.6-0.7,0.9-1c2.4-2.4,4.9-4.9,7.3-7.3c0.4,0,0.7,0,1.1,0
		c-0.1,0.2-0.2,0.3-0.3,0.4c-2.7,2.7-5.4,5.4-8.2,8.2c-0.1,0.1-0.2,0.2-0.3,0.3c1.2,1.2,2.4,2.4,3.6,3.6c4.2-4.2,8.4-8.4,12.5-12.6
		c0.4,0,0.7,0,1.1,0c-0.1,0.2-0.2,0.3-0.4,0.5c-4.1,4.1-8.2,8.2-12.3,12.3c-0.1,0.1-0.2,0.3-0.3,0.3c1.2,1.2,2.4,2.4,3.5,3.5
		c5.3-5.4,10.7-10.7,16-16.1c-0.1-0.1-0.2-0.3-0.3-0.4c0.4,0,0.7,0,1.1,0c0.1,0,0.3,0.1,0.4,0.1c2.2,0,4.4,0,6.5,0
		c0.1,0,0.3,0,0.4-0.1c0.7,0,1.4,0,2.1,0c-0.2,0.2-0.3,0.3-0.4,0.5c4,4,8,8,11.9,11.9c1.2-1.1,2.3-2.3,3.5-3.5
		c-2.7-2.7-5.5-5.5-8.4-8.3c0.2-0.2,0.3-0.3,0.4-0.5c0.4,0,0.7,0,1.1,0c-0.1,0.2-0.2,0.3-0.3,0.5c2.6,2.6,5.2,5.2,7.7,7.7
		c1.2-1.2,2.3-2.3,3.5-3.5c-1.3-1.3-2.8-2.8-4.2-4.2c0.1-0.2,0.2-0.3,0.3-0.5c0.4,0,0.8,0,1.2,0c-0.1,0.2-0.3,0.3-0.3,0.5
		c1.2,1.2,2.4,2.4,3.6,3.6c1.1-1.1,2.3-2.3,3.5-3.5c-0.2-0.2-0.3-0.3-0.5-0.5c0.7,0,1.4,0,2.1,0c-0.1,0.1-0.1,0.2-0.2,0.4
		c0.3,0,0.4,0,0.6,0c2,0,4.1,0,6.1,0c0.3,0,0.5-0.1,0.7-0.4c0.4,0,0.7,0,1.1,0c0,0.1-0.1,0.2-0.2,0.4c0.2,0,0.4,0,0.5,0c2,0,4,0,6,0
		c0.3,0,0.6,0,0.8-0.4c0.4,0,0.7,0,1.1,0c0,0.1-0.1,0.2-0.2,0.4c0.2,0,0.4,0,0.6,0c2,0,4,0,6,0c0.3,0,0.7,0,0.8-0.4
		c0.4,0,0.7,0,1.1,0c0,0.1-0.1,0.2-0.2,0.3c2.2,0,4.4,0,6.6,0c0-0.2-0.1-0.2-0.2-0.3c0.7,0,1.3,0,2,0c-0.2,0.2-0.4,0.4-0.5,0.6
		c1.2,1.2,2.4,2.4,3.5,3.5c1.3-1.3,2.7-2.7,4.2-4c0.4,0,0.7,0,1.1,0c-0.1,0.1-0.2,0.3-0.3,0.4c-1.3,1.3-2.7,2.7-4,4
		c-0.1,0.1-0.2,0.2-0.3,0.3c1.2,1.2,2.4,2.4,3.6,3.6c0.3-0.3,0.6-0.7,0.9-1c2.5-2.5,4.9-4.9,7.4-7.3c0.4,0,0.7,0,1.1,0
		c-0.1,0.2-0.2,0.3-0.3,0.4c-2.7,2.7-5.4,5.4-8.1,8.2c-0.1,0.1-0.2,0.2-0.3,0.3c1.2,1.2,2.4,2.4,3.5,3.6c4.1-4.1,8.3-8.3,12.4-12.4
		c0.4,0,0.7,0,1.1,0c-0.1,0.2-0.2,0.3-0.4,0.5c-4.1,4.1-8.2,8.2-12.3,12.3c-0.1,0.1-0.2,0.3-0.3,0.3c1.2,1.2,2.4,2.4,3.5,3.5
		c5.3-5.4,10.7-10.7,16.1-16.1c-0.1-0.1-0.2-0.3-0.3-0.4c1.1,0,2.1,0,3.2,0c0,0.3,0,0.6,0,0.9c-0.5,0-1.1,0-1.6,0
		c-0.2,0-0.5,0.1-0.7,0.3c-0.9,0.9-1.8,1.8-2.7,2.7c-0.1,0.1-0.2,0.2-0.3,0.3c1.8,0,3.5,0,5.2,0c0,0.3,0,0.5,0,0.8
		c-1.9,0-3.9,0-5.8,0c-0.2,0-0.5,0.1-0.6,0.2c-0.9,0.9-1.8,1.8-2.7,2.7c-0.1,0.1-0.1,0.2-0.2,0.3c1.3,0,2.5,0,3.6,0
		c1.9,0,3.8,0,5.7,0c0,0.3,0,0.5,0,0.8c-3.4,0-6.7,0-10,0c-0.2,0-0.4,0.1-0.5,0.2c-0.9,0.9-1.8,1.8-2.7,2.7
		c-0.1,0.1-0.1,0.2-0.2,0.3c0.3,0,0.5,0,0.7,0c4.1,0,8.2,0,12.3,0c0.2,0,0.4,0,0.6,0c0,0.2,0,0.5,0,0.7c-0.2,0-0.4,0-0.7,0
		c-4.4,0-8.8,0-13.3,0c-0.2,0-0.5,0-0.7,0.2c-1.1,1.1-2.2,2.2-3.3,3.3c-0.7,0-1.4,0-2.1,0c-1-1-2-1.9-3.1-2.9
		c-0.9,0.9-1.9,1.9-2.9,2.9c-0.4,0-0.7,0-1.1,0c0.7-0.7,1.3-1.4,2-2.1c0.5-0.5,1-1,1.4-1.4c-1.2-1.2-2.4-2.4-3.5-3.5
		c0,0-0.1,0.1-0.2,0.2c-2.2,2.2-4.4,4.4-6.6,6.6c-0.1,0.1-0.1,0.2-0.2,0.3c-0.4,0-0.8,0-1.2,0c0.1-0.1,0.2-0.3,0.3-0.4
		c2.3-2.3,4.6-4.6,6.9-6.9c0.2-0.2,0.3-0.2,0.4-0.3c-1.3-1.3-2.5-2.4-3.6-3.6c0,0-0.1,0.1-0.2,0.2c-3.6,3.6-7.2,7.2-10.7,10.7
		c-0.1,0.1-0.2,0.2-0.2,0.3c-0.4,0-0.8,0-1.2,0c0.2-0.2,0.3-0.3,0.4-0.4c3.7-3.7,7.3-7.3,11-11c0.2-0.2,0.3-0.3,0.3-0.3
		c-1.2-1.2-2.4-2.4-3.5-3.5c-0.1,0.1-0.2,0.2-0.3,0.3c-3.7,3.7-7.3,7.3-11,11c-1.3,1.3-2.7,2.7-4,4c-0.4,0-0.7,0-1.1,0
		c0.1-0.1,0.2-0.3,0.3-0.4c2.2-2.2,4.3-4.3,6.5-6.5c0.1-0.1,0.3-0.2,0.5-0.2c0,0-0.1-0.1-0.2-0.2c-4.8,0-9.5,0-14.3,0
		c0,0,0,0.1-0.1,0.1c0.1,0.1,0.3,0.2,0.4,0.3c2.2,2.2,4.3,4.3,6.4,6.4c0.1,0.1,0.2,0.3,0.3,0.4c-0.4,0-0.7,0-1.1,0
		c-0.2-0.2-0.3-0.3-0.4-0.4c-2.5-2.5-5-5-7.5-7.5c-2.4-2.4-4.7-4.7-7.1-7.1c-0.1-0.1-0.3-0.2-0.3-0.3c-1.2,1.2-2.4,2.4-3.6,3.6
		c0.2,0.1,0.3,0.2,0.5,0.3c3.7,3.7,7.4,7.3,11,11c0.1,0.1,0.2,0.3,0.3,0.4c-0.4,0-0.8,0-1.2,0c-0.1-0.1-0.2-0.2-0.3-0.3
		c-3.5-3.5-7.1-7.1-10.6-10.6c-0.1-0.1-0.2-0.2-0.3-0.3c-1.2,1.2-2.4,2.4-3.5,3.5c0.1,0.1,0.2,0.2,0.3,0.4c2.3,2.3,4.6,4.6,6.9,6.9
		c0.1,0.1,0.2,0.3,0.3,0.4c-0.4,0-0.8,0-1.2,0c-0.1-0.1-0.2-0.2-0.2-0.3c-2.2-2.2-4.4-4.4-6.6-6.6c-0.1-0.1-0.2-0.2-0.2-0.2
		c-1.2,1.2-2.4,2.4-3.5,3.5c0.8,0.8,1.8,1.8,2.7,2.7c0.3,0.3,0.5,0.5,0.7,0.8c-0.4,0-0.7,0-1.1,0c-1-1-2-2-2.9-2.9c-1,1-2,2-3,2.9
		c-0.4,0-0.7,0-1.1,0c0.1-0.1,0.2-0.3,0.3-0.4c0.9-0.9,1.8-1.8,2.7-2.7c0.1-0.1,0.2-0.2,0.3-0.4c-0.3,0-0.5,0-0.7,0
		c-5.9,0-11.8,0-17.7,0c-4.5,0-9,0-13.6,0c-0.2,0-0.5,0-0.7,0.2c-1.1,1.1-2.2,2.2-3.3,3.3c-0.7,0-1.4,0-2.1,0c-1-1-2-1.9-3.1-2.9
		c-0.9,0.9-1.9,1.9-2.9,2.9c-0.4,0-0.7,0-1.1,0c0.7-0.7,1.3-1.4,2-2.1c0.5-0.5,1-1,1.4-1.4c-1.2-1.2-2.4-2.4-3.5-3.5
		c0,0-0.1,0.1-0.2,0.2c-2.2,2.2-4.4,4.4-6.6,6.6c-0.1,0.1-0.1,0.2-0.2,0.3c-0.4,0-0.8,0-1.2,0c0.1-0.1,0.2-0.3,0.3-0.4
		c2.3-2.3,4.6-4.6,6.9-6.9c0.2-0.2,0.3-0.2,0.4-0.3c-1.3-1.3-2.5-2.4-3.6-3.6c0,0-0.1,0.1-0.2,0.2c-3.6,3.6-7.2,7.2-10.7,10.7
		c-0.1,0.1-0.2,0.2-0.2,0.3c-0.4,0-0.8,0-1.2,0c0.2-0.2,0.3-0.3,0.4-0.4c3.7-3.7,7.3-7.3,11-11c0.2-0.2,0.3-0.3,0.3-0.3
		c-1.2-1.2-2.4-2.4-3.5-3.5c-0.1,0.1-0.2,0.2-0.3,0.3c-3.7,3.7-7.3,7.3-11,11c-1.3,1.3-2.7,2.7-4,4c-0.4,0-0.7,0-1.1,0
		c0.1-0.1,0.2-0.3,0.3-0.4c2.2-2.2,4.3-4.3,6.5-6.5c0.1-0.1,0.3-0.2,0.5-0.2c0,0-0.1-0.1-0.2-0.2c-4.8,0-9.5,0-14.3,0
		c0,0,0,0.1,0,0.1c0.1,0.1,0.2,0.2,0.3,0.3c2.2,2.2,4.3,4.3,6.4,6.4c0.1,0.1,0.2,0.3,0.3,0.4c-0.4,0-0.7,0-1.1,0
		c-0.2-0.2-0.3-0.3-0.4-0.4c-2.5-2.5-5-5-7.5-7.5c-2.4-2.4-4.7-4.7-7.1-7.1c-0.1-0.1-0.3-0.2-0.3-0.3c-1.2,1.2-2.4,2.4-3.6,3.6
		c0.2,0.1,0.3,0.2,0.5,0.3c3.7,3.7,7.4,7.3,11,11c0.1,0.1,0.2,0.3,0.3,0.4c-0.4,0-0.8,0-1.2,0c-0.1-0.1-0.2-0.2-0.3-0.3
		c-3.5-3.5-7.1-7.1-10.6-10.6c-0.1-0.1-0.2-0.2-0.3-0.3c-1.2,1.2-2.4,2.4-3.5,3.5c0.1,0.1,0.2,0.2,0.3,0.4c2.3,2.3,4.6,4.6,6.9,6.9
		c0.1,0.1,0.2,0.3,0.3,0.4c-0.4,0-0.8,0-1.2,0c-0.1-0.1-0.2-0.2-0.2-0.3c-2.2-2.2-4.4-4.4-6.6-6.6c-0.1-0.1-0.2-0.2-0.2-0.2
		c-1.2,1.2-2.4,2.4-3.5,3.5c0.8,0.8,1.8,1.8,2.7,2.7c0.3,0.3,0.5,0.5,0.7,0.8c-0.4,0-0.7,0-1.1,0c-1-1-2-2-2.9-2.9c-1,1-2,2-3,2.9
		c-0.4,0-0.7,0-1.1,0c0.1-0.1,0.2-0.3,0.3-0.4c0.9-0.9,1.8-1.8,2.7-2.7c0.1-0.1,0.2-0.2,0.3-0.4c-0.3,0-0.5,0-0.7,0
		c-5.9,0-11.8,0-17.7,0c-4.5,0-9,0-13.6,0c-0.2,0-0.5,0-0.7,0.2c-1.1,1.1-2.2,2.2-3.3,3.3c-0.7,0-1.4,0-2.1,0c-1-1-2-1.9-3.1-2.9
		c-0.9,0.9-1.9,1.9-2.9,2.9c-0.4,0-0.7,0-1.1,0c0.7-0.7,1.3-1.4,2-2.1c0.5-0.5,1-1,1.4-1.4c-1.2-1.2-2.4-2.4-3.5-3.5
		c0,0-0.1,0.1-0.2,0.2c-2.2,2.2-4.4,4.4-6.6,6.6c-0.1,0.1-0.1,0.2-0.2,0.3c-0.4,0-0.8,0-1.2,0c0.1-0.1,0.2-0.3,0.3-0.4
		c2.3-2.3,4.6-4.6,6.9-6.9c0.2-0.2,0.3-0.2,0.4-0.3c-1.3-1.3-2.5-2.4-3.6-3.6c0,0-0.1,0.1-0.2,0.2c-3.6,3.6-7.2,7.2-10.7,10.7
		c-0.1,0.1-0.2,0.2-0.2,0.3c-0.4,0-0.8,0-1.2,0c0.2-0.2,0.3-0.3,0.4-0.4c3.7-3.7,7.3-7.3,11-11c0.2-0.2,0.3-0.3,0.3-0.3
		c-1.2-1.2-2.4-2.4-3.5-3.5c-0.1,0.1-0.2,0.2-0.3,0.3c-3.7,3.7-7.3,7.3-11,11c-1.3,1.3-2.7,2.7-4,4c-0.4,0-0.7,0-1.1,0
		c0.1-0.1,0.2-0.3,0.3-0.4c2.2-2.2,4.3-4.3,6.5-6.5c0.1-0.1,0.3-0.2,0.5-0.2c0,0-0.1-0.1-0.2-0.2c-4.8,0-9.5,0-14.4,0
		c0.2,0.2,0.3,0.3,0.4,0.4c2.2,2.2,4.3,4.3,6.4,6.4c0.1,0.1,0.2,0.3,0.3,0.4c-0.4,0-0.7,0-1.1,0c-0.2-0.2-0.3-0.3-0.4-0.4
		c-2.5-2.5-5-5-7.5-7.5c-2.4-2.4-4.7-4.7-7.1-7.1c-0.1-0.1-0.3-0.2-0.3-0.3c-1.2,1.2-2.4,2.4-3.6,3.6c0.2,0.1,0.3,0.2,0.5,0.3
		c3.7,3.7,7.4,7.3,11,11c0.1,0.1,0.2,0.3,0.3,0.4c-0.4,0-0.8,0-1.2,0c-0.1-0.1-0.2-0.2-0.3-0.3c-3.5-3.5-7.1-7.1-10.6-10.6
		c-0.1-0.1-0.2-0.2-0.3-0.3c-1.2,1.2-2.4,2.4-3.5,3.5c0.1,0.1,0.2,0.2,0.3,0.4c2.3,2.3,4.6,4.6,6.9,6.9c0.1,0.1,0.2,0.3,0.3,0.4
		c-0.4,0-0.8,0-1.2,0c-0.1-0.1-0.2-0.2-0.2-0.3c-2.2-2.2-4.4-4.4-6.6-6.6c-0.1-0.1-0.2-0.2-0.2-0.2c-1.2,1.2-2.4,2.4-3.5,3.5
		c0.9,0.9,1.8,1.8,2.7,2.7c0.3,0.3,0.5,0.5,0.7,0.8c-0.4,0-0.7,0-1.1,0c-1-1-2-2-2.9-2.9c-1,1-2,2-3,2.9c-0.4,0-0.7,0-1.1,0
		c0.1-0.1,0.2-0.3,0.3-0.4c0.9-0.9,1.8-1.8,2.7-2.7c0.1-0.1,0.2-0.2,0.3-0.4c-0.3,0-0.5,0-0.7,0c-5.9,0-11.8,0-17.7,0
		c-4.5,0-9,0-13.6,0c-0.2,0-0.5,0-0.7,0.2c-1.1,1.1-2.2,2.2-3.3,3.3c-0.7,0-1.4,0-2.1,0c-1-1-2-1.9-3.1-2.9
		c-0.9,0.9-1.9,1.9-2.9,2.9c-0.4,0-0.7,0-1.1,0c0.7-0.7,1.3-1.4,2-2.1c0.5-0.5,1-1,1.4-1.4c-1.2-1.2-2.4-2.4-3.5-3.5
		c0,0-0.1,0.1-0.2,0.2c-2.2,2.2-4.4,4.4-6.6,6.6c-0.1,0.1-0.1,0.2-0.2,0.3c-0.4,0-0.8,0-1.2,0c0.1-0.1,0.2-0.3,0.3-0.4
		c2.3-2.3,4.6-4.6,6.9-6.9c0.2-0.2,0.3-0.2,0.4-0.3c-1.3-1.3-2.5-2.4-3.6-3.6c0,0-0.1,0.1-0.2,0.2c-3.6,3.6-7.2,7.2-10.7,10.7
		c-0.1,0.1-0.2,0.2-0.2,0.3c-0.4,0-0.8,0-1.2,0c0.2-0.2,0.3-0.3,0.4-0.4c3.7-3.7,7.3-7.3,11-11c0.2-0.2,0.3-0.3,0.3-0.3
		c-1.2-1.2-2.4-2.4-3.5-3.5c-0.1,0.1-0.2,0.2-0.3,0.3c-3.7,3.7-7.3,7.3-11,11c-1.3,1.3-2.7,2.7-4,4c-0.4,0-0.7,0-1.1,0
		c0.1-0.1,0.2-0.3,0.3-0.4c2.2-2.2,4.3-4.3,6.5-6.5c0.1-0.1,0.3-0.2,0.5-0.2c0,0-0.1-0.1-0.2-0.2c-4.8,0-9.5,0-14.3,0
		c0,0,0,0.1-0.1,0.1c0.1,0.1,0.3,0.2,0.4,0.3c2.2,2.2,4.3,4.3,6.4,6.4c0.1,0.1,0.2,0.3,0.3,0.4c-0.4,0-0.7,0-1.1,0
		c-0.2-0.2-0.3-0.3-0.4-0.4c-2.5-2.5-5-5-7.5-7.5c-2.4-2.4-4.7-4.7-7.1-7.1c-0.1-0.1-0.3-0.2-0.3-0.3c-1.2,1.2-2.4,2.4-3.6,3.6
		c0.2,0.1,0.3,0.2,0.5,0.3c3.7,3.7,7.4,7.3,11,11c0.1,0.1,0.2,0.3,0.3,0.4c-0.4,0-0.8,0-1.2,0c-0.1-0.1-0.2-0.2-0.3-0.3
		c-3.5-3.5-7.1-7.1-10.6-10.6c-0.1-0.1-0.2-0.2-0.3-0.3c-1.2,1.2-2.4,2.4-3.5,3.5c0.1,0.1,0.2,0.2,0.3,0.4c2.3,2.3,4.6,4.6,6.9,6.9
		c0.1,0.1,0.2,0.3,0.3,0.4c-0.4,0-0.8,0-1.2,0c-0.1-0.1-0.2-0.2-0.2-0.3c-2.2-2.2-4.4-4.4-6.6-6.6c-0.1-0.1-0.2-0.2-0.2-0.2
		c-1.2,1.2-2.4,2.4-3.5,3.5c0.9,0.9,1.8,1.8,2.7,2.7c0.3,0.3,0.5,0.5,0.7,0.8c-0.4,0-0.7,0-1.1,0c-1-1-2-2-2.9-2.9c-1,1-2,2-3,2.9
		c-0.4,0-0.7,0-1.1,0c0.1-0.1,0.2-0.3,0.3-0.4c0.9-0.9,1.8-1.8,2.7-2.7c0.1-0.1,0.2-0.2,0.3-0.4c-0.3,0-0.5,0-0.7,0
		c-5.9,0-11.8,0-17.7,0c-4.5,0-9,0-13.6,0c-0.2,0-0.5,0-0.7,0.2c-1.1,1.1-2.2,2.2-3.3,3.3c-0.7,0-1.4,0-2.1,0c-1-1-2-1.9-3.1-2.9
		c-0.9,0.9-1.9,1.9-2.9,2.9c-0.4,0-0.7,0-1.1,0c0.7-0.7,1.3-1.4,2-2.1c0.5-0.5,1-1,1.4-1.4c-1.2-1.2-2.4-2.4-3.5-3.5
		c0,0-0.1,0.1-0.2,0.2c-2.2,2.2-4.4,4.4-6.6,6.6c-0.1,0.1-0.1,0.2-0.2,0.3c-0.4,0-0.8,0-1.2,0c0.1-0.1,0.2-0.3,0.3-0.4
		c2.3-2.3,4.6-4.6,6.9-6.9c0.2-0.2,0.3-0.2,0.4-0.3c-1.3-1.3-2.5-2.4-3.6-3.6c0,0-0.1,0.1-0.2,0.2c-3.6,3.6-7.2,7.2-10.7,10.7
		c-0.1,0.1-0.2,0.2-0.2,0.3c-0.4,0-0.8,0-1.2,0c0.2-0.2,0.3-0.3,0.4-0.4c3.7-3.7,7.3-7.3,11-11c0.2-0.2,0.3-0.2,0.4-0.3
		c-1.3-1.3-2.4-2.4-3.7-3.7c-0.1,0.1-0.2,0.2-0.3,0.3c-2.6,2.6-5.2,5.2-7.7,7.7c-0.1,0.1-0.3,0.2-0.4,0.3c0-0.4,0-0.8,0-1.2
		c0.1-0.1,0.3-0.2,0.4-0.3c0.8-0.8,1.6-1.6,2.4-2.4c0.2-0.1,0.3-0.2,0.5-0.3c0-0.1-0.1-0.2-0.2-0.2c-1,0-2.1,0-3.2,0
		c0-0.3,0-0.5,0-0.8c1.3,0,2.5,0,3.8,0c0.2,0,0.5-0.1,0.6-0.2c1-1,2-1.9,2.9-2.9c0.1-0.1,0.1-0.1,0.2-0.3c-0.3,0-0.4,0-0.6,0
		c-2.3,0-4.6,0-6.9,0c0-0.4,0-0.8,0-1.2c0.4,0,0.8,0,1.3,0c0,0.1-0.1,0.2-0.2,0.3c2.2,0,4.4,0,6.6,0c0-0.2-0.1-0.2-0.2-0.3
		c0.7,0,1.3,0,2,0c-0.2,0.2-0.4,0.4-0.5,0.6c1.2,1.2,2.4,2.4,3.5,3.5c1.3-1.3,2.7-2.7,4.2-4c0.4,0,0.7,0,1.1,0
		c-0.1,0.1-0.2,0.3-0.3,0.4c-1.3,1.3-2.7,2.7-4,4c-0.1,0.1-0.2,0.2-0.3,0.3c1.2,1.2,2.4,2.4,3.6,3.6c0.3-0.3,0.6-0.7,0.9-1
		c2.4-2.4,4.9-4.9,7.3-7.3c0.4,0,0.7,0,1.1,0c-0.1,0.2-0.2,0.3-0.3,0.4c-2.7,2.7-5.4,5.4-8.2,8.2c-0.1,0.1-0.2,0.2-0.3,0.3
		c1.2,1.2,2.4,2.4,3.6,3.6c4.1-4.1,8.2-8.3,12.4-12.4c0.4,0,0.7,0,1.1,0c-0.1,0.2-0.2,0.3-0.4,0.5c-4.1,4.1-8.2,8.2-12.3,12.3
		c-0.1,0.1-0.2,0.3-0.3,0.3c1.2,1.2,2.4,2.4,3.5,3.5c5.3-5.3,10.7-10.7,16.1-16.1c-0.1-0.1-0.2-0.3-0.3-0.4c0.4,0,0.7,0,1.1,0
		c0.1,0,0.3,0.1,0.4,0.1c2.2,0,4.4,0,6.5,0c0.1,0,0.3,0,0.4-0.1c0.7,0,1.4,0,2.1,0c-0.2,0.2-0.3,0.3-0.4,0.5c4,4,8,8,11.9,11.9
		c1.2-1.1,2.3-2.3,3.5-3.5c-2.7-2.7-5.5-5.5-8.4-8.3c0.2-0.2,0.3-0.3,0.4-0.5c0.4,0,0.7,0,1.1,0c-0.1,0.2-0.2,0.3-0.3,0.5
		c2.6,2.6,5.2,5.2,7.7,7.7c1.2-1.2,2.3-2.3,3.5-3.5c-1.3-1.3-2.8-2.8-4.2-4.2c0.1-0.2,0.2-0.3,0.3-0.5c0.4,0,0.8,0,1.2,0
		c-0.1,0.2-0.3,0.3-0.3,0.5c1.2,1.2,2.4,2.4,3.6,3.6c1.1-1.1,2.3-2.3,3.5-3.5c-0.2-0.2-0.3-0.3-0.5-0.5c0.7,0,1.4,0,2.1,0
		c-0.1,0.1-0.1,0.2-0.2,0.4c0.3,0,0.4,0,0.6,0c2,0,4.1,0,6.1,0c0.3,0,0.5-0.1,0.7-0.4c0.4,0,0.7,0,1.1,0c0,0.1-0.1,0.2-0.2,0.4
		c0.2,0,0.4,0,0.5,0c2,0,4,0,6,0c0.3,0,0.6,0,0.8-0.4c0.4,0,0.7,0,1.1,0c0,0.1-0.1,0.2-0.2,0.4c0.2,0,0.4,0,0.6,0c2,0,4,0,6,0
		c0.3,0,0.7,0,0.8-0.4c0.4,0,0.7,0,1.1,0c0,0.1-0.1,0.2-0.2,0.3c2.2,0,4.4,0,6.6,0c0-0.2-0.1-0.2-0.2-0.3c0.7,0,1.3,0,2,0
		c-0.2,0.2-0.4,0.4-0.5,0.6c1.2,1.2,2.4,2.4,3.5,3.5c1.3-1.3,2.7-2.7,4.2-4c0.4,0,0.7,0,1.1,0c-0.1,0.1-0.2,0.3-0.3,0.4
		c-1.3,1.3-2.7,2.7-4,4c-0.1,0.1-0.2,0.2-0.3,0.3c1.2,1.2,2.4,2.4,3.6,3.6c0.3-0.3,0.6-0.7,0.9-1c2.4-2.4,4.9-4.9,7.3-7.3
		c0.4,0,0.7,0,1.1,0c-0.1,0.2-0.2,0.3-0.3,0.4c-2.7,2.7-5.4,5.4-8.2,8.2c-0.1,0.1-0.2,0.2-0.3,0.3c1.2,1.2,2.4,2.4,3.5,3.6
		c4-4.8,8.2-9,12.3-13.1c0.4,0,0.7,0,1.1,0c-0.1,0.2-0.2,0.3-0.4,0.5c-4.1,4.1-8.2,8.2-12.3,12.3c-0.1,0.1-0.2,0.3-0.3,0.3
		c1.2,1.2,2.4,2.4,3.5,3.5c5.4-5.3,10.7-10.7,16.1-16.1c-0.1-0.1-0.2-0.3-0.3-0.4c0.4,0,0.7,0,1.1,0c0.1,0,0.3,0.1,0.4,0.1
		c2.2,0,4.4,0,6.5,0c0.1,0,0.3,0,0.4-0.1c0.7,0,1.4,0,2.1,0c-0.2,0.2-0.3,0.3-0.4,0.5c4,4,8,8,11.9,11.9c1.2-1.2,2.3-2.3,3.5-3.5
		c-2.7-2.7-5.5-5.5-8.4-8.3C557-0.4,557.1-0.5,557.3-0.7z M475.3,0.5c0,0.1,0,0.1,0.1,0.2c1,1,2,2,3,3c0.1,0.1,0.3,0.2,0.5,0.2
		c7.9,0,15.8,0,23.8,0c0.2,0,0.4-0.1,0.5-0.2c1-1,2-2,3-3c0,0,0-0.1,0.1-0.2C495.9,0.5,485.7,0.5,475.3,0.5z M805.7,0.5
		c-10.4,0-20.7,0-31.1,0c0,0.1,0.1,0.2,0.1,0.2c1,1,2,2,3,3c0.1,0.1,0.3,0.2,0.5,0.2c7.9,0,15.8,0,23.7,0c0.2,0,0.3,0,0.5-0.1
		C803.5,2.7,804.6,1.7,805.7,0.5z M575.1,0.5c0,0.1,0.1,0.2,0.1,0.2c1,1,2,2,3,3c0.1,0.1,0.3,0.2,0.5,0.2c7.9,0,15.8,0,23.7,0
		c0.2,0,0.5-0.1,0.7-0.3c1-0.9,1.9-1.8,2.8-2.8c0.1-0.1,0.2-0.2,0.2-0.3C595.7,0.5,585.4,0.5,575.1,0.5z M705.9,0.5
		c-10.4,0-20.7,0-31.1,0c0,0.1,0,0.1,0.1,0.2c1,1,2,2,3.1,3.1c0.1,0.1,0.3,0.2,0.5,0.2c7.9,0,15.8,0,23.7,0c0.2,0,0.3,0,0.5-0.1
		C703.7,2.7,704.8,1.7,705.9,0.5z M460.7,11.8c-1-1-2-2-3-3c-0.2-0.2-0.5-0.3-0.7-0.3c-8,0-15.9,0-23.9,0c-0.2,0-0.5,0.1-0.7,0.3
		c-0.9,0.9-1.8,1.8-2.7,2.7c-0.1,0.1-0.2,0.2-0.3,0.3C439.9,11.8,450.2,11.8,460.7,11.8z M728.8,11.8c10.5,0,20.8,0,31.3,0
		c-1-1-1.9-1.9-2.9-2.9c-0.3-0.3-0.6-0.4-1-0.4c-7.7,0-15.5,0-23.2,0c-0.7,0-1.2,0.2-1.7,0.7C730.5,10.1,729.7,10.9,728.8,11.8z
		 M629,11.8c10.5,0,20.8,0,31.3,0c-1-1-1.9-1.9-2.9-2.9c-0.3-0.3-0.6-0.4-1-0.4c-7.3,0-14.7,0-22,0c-0.7,0-1.5-0.2-2.1,0.1
		c-0.6,0.3-1,0.9-1.5,1.4C630.2,10.6,629.6,11.2,629,11.8z M560.5,11.8c-1-1-1.9-1.8-2.8-2.8c-0.3-0.4-0.7-0.5-1.2-0.5
		c-1.9,0-3.9,0-5.8,0c-5.9,0-11.8,0-17.6,0c-0.4,0-0.7,0.1-0.9,0.4c-0.7,0.7-1.5,1.5-2.2,2.2c-0.2,0.2-0.5,0.4-0.7,0.6
		c0,0,0.1,0.1,0.1,0.1C539.7,11.8,550,11.8,560.5,11.8z M633.2,7.6c0,0,0.1,0.1,0.1,0.1c7.6,0,15.2,0,22.8,0c0-0.1,0-0.1-0.1-0.2
		c-1-1-2-2-2.9-2.9c-0.1-0.1-0.3-0.2-0.5-0.2c-5.2,0-10.5,0-15.7,0c-0.2,0-0.5,0.1-0.7,0.3c-0.8,0.7-1.5,1.5-2.2,2.2
		C633.7,7.1,633.4,7.3,633.2,7.6z M732.9,7.7c7.7,0,15.3,0,23,0c-0.2-0.2-0.2-0.3-0.3-0.4c-0.8-0.8-1.6-1.6-2.4-2.4
		c-0.3-0.3-0.7-0.5-1.1-0.5c-4.9,0-9.7,0-14.5,0c-1,0-1.7,0.2-2.3,1C734.5,6.1,733.7,6.9,732.9,7.7z M533.4,7.5c0,0,0.1,0.1,0.1,0.2
		c7.6,0,15.2,0,22.8,0c0-0.1,0-0.1-0.1-0.2c-1-1-2-2-2.9-2.9c-0.1-0.1-0.3-0.2-0.5-0.2c-5.3,0-10.5,0-15.8,0c-0.2,0-0.4,0.1-0.6,0.3
		c-0.7,0.6-1.2,1.2-1.9,1.8C534.1,6.9,533.7,7.2,533.4,7.5z M456.5,7.7c0-0.1,0-0.1-0.1-0.2c-1-1-2-2-2.9-2.9
		c-0.1-0.1-0.3-0.2-0.5-0.2c-5.2,0-10.5,0-15.7,0c-0.2,0-0.5,0.1-0.7,0.3c-0.8,0.7-1.5,1.5-2.2,2.2c-0.2,0.2-0.5,0.4-0.8,0.7
		c0,0,0.1,0.1,0.1,0.1C441.3,7.7,448.9,7.7,456.5,7.7z M601.9,4.8c-7.6,0-15.1,0-22.7,0c1,1,2,2,3,3c0.1,0.1,0.3,0.2,0.5,0.2
		c5.2,0,10.4,0,15.6,0c0.2,0,0.3,0,0.5-0.2C599.9,6.9,600.8,5.9,601.9,4.8z M701.7,4.8c-7.6,0-15.1,0-22.6,0c1,1,2,2,3,3
		c0.1,0.1,0.3,0.2,0.5,0.2c5.2,0,10.4,0,15.6,0c0.2,0,0.3,0,0.5-0.2C699.6,6.9,700.6,5.9,701.7,4.8z M479.5,4.8
		c0.1,0.1,0.1,0.2,0.2,0.2c0.9,0.9,1.8,1.9,2.8,2.8c0.1,0.1,0.4,0.2,0.6,0.2c5.2,0,10.3,0,15.5,0c0.2,0,0.5-0.1,0.7-0.3
		c0.9-0.8,1.7-1.7,2.6-2.6c0.1-0.1,0.2-0.2,0.2-0.3C494.5,4.8,487.1,4.8,479.5,4.8z M778.8,4.8c1.1,1.1,2,2.1,3,3
		C782,8,782.2,8,782.4,8c5.2,0,10.4,0,15.5,0c0.2,0,0.5-0.1,0.7-0.3c0.7-0.7,1.4-1.4,2.2-2.2c0.2-0.2,0.5-0.4,0.7-0.6
		c0,0-0.1-0.1-0.1-0.1C793.9,4.8,786.4,4.8,778.8,4.8z M552.2,3.6c-0.2-0.2-0.2-0.3-0.3-0.3c-0.9-0.9-1.7-1.8-2.7-2.6
		c-0.2-0.2-0.5-0.3-0.7-0.3c-2.5,0-4.9,0-7.4,0c-0.2,0-0.5,0.1-0.7,0.3c-0.9,0.8-1.8,1.8-2.7,2.6c-0.1,0.1-0.2,0.2-0.3,0.3
		C542.5,3.6,547.2,3.6,552.2,3.6z M637.3,3.5c4.9,0,9.7,0,14.6,0c-0.1-0.1-0.1-0.2-0.2-0.2c-1-1-1.9-1.9-2.9-2.9
		c-0.1-0.1-0.3-0.2-0.5-0.2c-2.5,0-5,0-7.4,0c-0.2,0-0.5,0.1-0.6,0.3c-0.9,0.8-1.7,1.7-2.6,2.6C637.6,3.2,637.5,3.3,637.3,3.5z
		 M751.7,3.6c0-0.1-0.1-0.2-0.1-0.2c-1-1-2-2-2.9-2.9c-0.1-0.1-0.3-0.2-0.5-0.2c-2.5,0-4.9,0-7.4,0c-0.2,0-0.5,0.1-0.7,0.3
		c-0.9,0.9-1.8,1.8-2.7,2.7c-0.1,0.1-0.2,0.2-0.2,0.3C742,3.6,746.8,3.6,751.7,3.6z M437.7,3.5c4.9,0,9.7,0,14.6,0
		c-0.1-0.1-0.1-0.2-0.2-0.2c-1-1-1.9-1.9-2.9-2.9c-0.1-0.1-0.3-0.2-0.5-0.2c-2.5,0-5,0-7.4,0c-0.2,0-0.5,0.1-0.6,0.3
		c-0.9,0.8-1.7,1.7-2.6,2.6C438,3.2,437.9,3.3,437.7,3.5z"/>
</g>
<g>
	<path fill="#E4C590" d="M158.3-0.1c0.4,0,0.7,0,1.1,0c-0.1,0.2-0.2,0.3-0.3,0.5c2.6,2.6,5.2,5.2,7.7,7.7c1.2-1.2,2.3-2.3,3.5-3.5
		c-1.3-1.3-2.8-2.8-4.2-4.2c0.1-0.2,0.2-0.3,0.3-0.5c0.4,0,0.8,0,1.2,0c-0.1,0.2-0.3,0.3-0.3,0.5c1.2,1.2,2.4,2.4,3.6,3.6
		c1.1-1.1,2.3-2.3,3.5-3.5c-0.2-0.2-0.3-0.3-0.5-0.5c0.7,0,1.4,0,2.1,0c-0.1,0.1-0.1,0.2-0.2,0.4c0.3,0,0.4,0,0.6,0c2,0,4.1,0,6.1,0
		c0.3,0,0.5-0.1,0.7-0.4c0.4,0,0.7,0,1.1,0c0,0.1-0.1,0.2-0.2,0.4c0.2,0,0.4,0,0.5,0c2,0,4,0,6,0c0.3,0,0.6,0,0.8-0.4
		c0.4,0,0.7,0,1.1,0c0,0.1-0.1,0.2-0.2,0.4c0.2,0,0.4,0,0.6,0c2,0,4,0,6,0c0.3,0,0.7,0,0.8-0.4c0.4,0,0.7,0,1.1,0
		c0,0.1-0.1,0.2-0.2,0.3c2.2,0,4.4,0,6.6,0c0-0.2-0.1-0.2-0.2-0.3c0.7,0,1.3,0,2,0c-0.2,0.2-0.4,0.4-0.5,0.6
		c1.2,1.2,2.4,2.4,3.5,3.5c1.3-1.3,2.7-2.7,4.2-4c0.4,0,0.7,0,1.1,0c-0.1,0.1-0.2,0.3-0.3,0.4c-1.3,1.3-2.7,2.7-4,4
		c-0.1,0.1-0.2,0.2-0.3,0.3c1.2,1.2,2.4,2.4,3.6,3.6c0.3-0.3,0.6-0.7,0.9-1c2.4-2.4,4.9-4.9,7.3-7.3c0.4,0,0.7,0,1.1,0
		c-0.1,0.2-0.2,0.3-0.3,0.4c-2.7,2.7-5.4,5.4-8.2,8.2c-0.1,0.1-0.2,0.2-0.3,0.3c1.2,1.2,2.4,2.4,3.5,3.6c4.1-4.1,8.2-8.3,12.4-12.4
		c0.4,0,0.7,0,1.1,0c-0.1,0.2-0.2,0.3-0.4,0.5c-4.1,4.1-8.2,8.2-12.3,12.3c-0.1,0.1-0.2,0.3-0.3,0.3c1.2,1.2,2.4,2.4,3.5,3.5
		c5.3-5.3,10.7-10.7,16.1-16.1c-0.1-0.1-0.2-0.3-0.3-0.4c0.4,0,0.7,0,1.1,0c0.1,0,0.3,0.1,0.4,0.1c2.2,0,4.4,0,6.5,0
		c0.1,0,0.3,0,0.4-0.1c0.7,0,1.4,0,2.1,0c-0.2,0.2-0.3,0.3-0.4,0.5c4,4,8,8,11.9,11.9c1.2-1.1,2.3-2.3,3.5-3.5
		c-2.7-2.7-5.5-5.5-8.4-8.3c0.2-0.2,0.3-0.3,0.4-0.5c0.4,0,0.7,0,1.1,0c-0.1,0.2-0.2,0.3-0.3,0.5c2.6,2.6,5.2,5.2,7.7,7.7
		c1.2-1.2,2.3-2.3,3.5-3.5c-1.3-1.3-2.8-2.8-4.2-4.2c0.1-0.2,0.2-0.3,0.3-0.5c0.4,0,0.8,0,1.2,0c-0.1,0.2-0.3,0.3-0.3,0.5
		c1.2,1.2,2.4,2.4,3.6,3.6c1.1-1.1,2.3-2.3,3.5-3.5c-0.2-0.2-0.3-0.3-0.5-0.5c0.7,0,1.4,0,2.1,0c-0.1,0.1-0.1,0.2-0.2,0.4
		c0.3,0,0.4,0,0.6,0c2,0,4.1,0,6.1,0c0.3,0,0.5-0.1,0.7-0.4c0.4,0,0.7,0,1.1,0c0,0.1-0.1,0.2-0.2,0.4c0.2,0,0.4,0,0.5,0c2,0,4,0,6,0
		c0.3,0,0.6,0,0.8-0.4c0.4,0,0.7,0,1.1,0c0,0.1-0.1,0.2-0.2,0.4c0.2,0,0.4,0,0.6,0c2,0,4,0,6,0c0.3,0,0.7,0,0.8-0.4
		c0.4,0,0.7,0,1.1,0c0,0.1-0.1,0.2-0.2,0.3c2.2,0,4.4,0,6.6,0c0-0.2-0.1-0.2-0.2-0.3c0.7,0,1.3,0,2,0c-0.2,0.2-0.4,0.4-0.5,0.6
		c1.2,1.2,2.4,2.4,3.5,3.5c1.3-1.3,2.7-2.7,4.2-4c0.4,0,0.7,0,1.1,0c-0.1,0.1-0.2,0.3-0.3,0.4c-1.3,1.3-2.7,2.7-4,4
		c-0.1,0.1-0.2,0.2-0.3,0.3c1.2,1.2,2.4,2.4,3.6,3.6c0.3-0.3,0.6-0.7,0.9-1c2.4-2.4,4.9-4.9,7.3-7.3c0.4,0,0.7,0,1.1,0
		c-0.1,0.2-0.2,0.3-0.3,0.4c-2.7,2.7-5.4,5.4-8.2,8.2c-0.1,0.1-0.2,0.2-0.3,0.3c1.2,1.2,2.4,2.4,3.6,3.6c4.1-4.1,8.2-8.3,12.4-12.4
		c0.4,0,0.7,0,1.1,0c-0.1,0.2-0.2,0.3-0.4,0.5c-4.1,4.1-8.2,8.2-12.3,12.3c-0.1,0.1-0.2,0.3-0.3,0.3c1.2,1.2,2.4,2.4,3.5,3.5
		c5.3-5.3,10.7-10.7,16.1-16.1c-0.1-0.1-0.2-0.3-0.3-0.4c0.4,0,0.7,0,1.1,0c0.1,0,0.3,0.1,0.4,0.1c2.2,0,4.4,0,6.5,0
		c0.1,0,0.3,0,0.4-0.1c0.7,0,1.4,0,2.1,0c-0.2,0.2-0.3,0.3-0.4,0.5c4,4,8,8,11.9,11.9c1.2-1.1,2.3-2.3,3.5-3.5
		c-2.7-2.7-5.5-5.5-8.4-8.3c0.2-0.2,0.3-0.3,0.4-0.5c0.4,0,0.7,0,1.1,0c-0.1,0.2-0.2,0.3-0.3,0.5c2.6,2.6,5.2,5.2,7.7,7.7
		c1.2-1.2,2.3-2.3,3.5-3.5c-1.3-1.3-2.8-2.8-4.2-4.2c0.1-0.2,0.2-0.3,0.3-0.5c0.4,0,0.8,0,1.2,0c-0.1,0.2-0.3,0.3-0.3,0.5
		c1.2,1.2,2.4,2.4,3.6,3.6c1.1-1.1,2.3-2.3,3.5-3.5c-0.2-0.2-0.3-0.3-0.5-0.5c0.7,0,1.4,0,2.1,0c-0.1,0.1-0.1,0.2-0.2,0.4
		c0.3,0,0.4,0,0.6,0c2,0,4.1,0,6.1,0c0.3,0,0.5-0.1,0.7-0.4c0.4,0,0.7,0,1.1,0c0,0.1-0.1,0.2-0.2,0.4c0.2,0,0.4,0,0.5,0c2,0,4,0,6,0
		c0.3,0,0.6,0,0.8-0.4c0.4,0,0.7,0,1.1,0c0,0.1-0.1,0.2-0.2,0.4c0.2,0,0.4,0,0.6,0c2,0,4,0,6,0c0.3,0,0.7,0,0.8-0.4
		c0.4,0,0.7,0,1.1,0c0,0.1-0.1,0.2-0.2,0.3c2.2,0,4.4,0,6.6,0c0-0.2-0.1-0.2-0.2-0.3c0.7,0,1.3,0,2,0c-0.2,0.2-0.4,0.4-0.5,0.6
		c1.2,1.2,2.4,2.4,3.5,3.5c1.3-1.3,2.7-2.7,4.2-4c0.4,0,0.7,0,1.1,0c-0.1,0.1-0.2,0.3-0.3,0.4c-1.3,1.3-2.7,2.7-4,4
		c-0.1,0.1-0.2,0.2-0.3,0.3c1.2,1.2,2.4,2.4,3.6,3.6c0.3-0.3,0.6-0.7,0.9-1c2.4-2.4,4.9-4.9,7.3-7.3c0.4,0,0.7,0,1.1,0
		c-0.1,0.2-0.2,0.3-0.3,0.4c-2.7,2.7-5.4,5.4-8.2,8.2c-0.1,0.1-0.2,0.2-0.3,0.3c1.2,1.2,2.4,2.4,3.5,3.6c4.1-4.1,8.2-8.3,12.4-12.4
		c0.4,0,0.7,0,1.1,0c-0.1,0.2-0.2,0.3-0.4,0.5c-4.1,4.1-8.2,8.2-12.3,12.3c-0.1,0.1-0.2,0.3-0.3,0.3c1.2,1.2,2.4,2.4,3.5,3.5
		c5.3-5.3,10.7-10.7,16.1-16.1c-0.1-0.1-0.2-0.3-0.3-0.4c1,0,2.1,0,3.2,0c0,0.3,0,0.6,0,0.9c-0.5,0-1.1,0-1.6,0
		c-0.2,0-0.5,0.1-0.7,0.3c-0.9,0.9-1.8,1.8-2.7,2.7c-0.1,0.1-0.2,0.2-0.3,0.3c1.8,0,3.5,0,5.2,0c0,0.3,0,0.5,0,0.8
		c-1.9,0-3.9,0-5.8,0c-0.2,0-0.5,0.1-0.6,0.2c-0.9,0.9-1.8,1.8-2.7,2.7c-0.1,0.1-0.1,0.2-0.2,0.3c1.3,0,2.5,0,3.6,0
		c1.9,0,3.8,0,5.7,0c0,0.3,0,0.5,0,0.8c-3.4,0-6.7,0-10,0c-0.2,0-0.4,0.1-0.5,0.2c-0.9,0.9-1.8,1.8-2.7,2.7
		c-0.1,0.1-0.1,0.2-0.2,0.3c0.3,0,0.5,0,0.7,0c4.1,0,8.2,0,12.3,0c0.2,0,0.4,0,0.6,0c0,0.2,0,0.5,0,0.7c-0.2,0-0.4,0-0.7,0
		c-4.4,0-8.8,0-13.3,0c-0.2,0-0.5,0-0.7,0.2c-1.1,1.1-2.2,2.2-3.3,3.3c-0.7,0-1.4,0-2.1,0c-1-1-2-1.9-3.1-2.9
		C418.9,15,418,16,417,17c-0.4,0-0.7,0-1.1,0c0.7-0.7,1.3-1.4,2-2.1c0.5-0.5,1-1,1.4-1.4c-1.2-1.2-2.4-2.4-3.5-3.5
		c0,0-0.1,0.1-0.2,0.2c-2.2,2.2-4.4,4.4-6.6,6.6c-0.1,0.1-0.1,0.2-0.2,0.3c-0.4,0-0.8,0-1.2,0c0.1-0.1,0.2-0.3,0.3-0.4
		c2.3-2.3,4.6-4.6,6.9-6.9c0.2-0.2,0.3-0.2,0.4-0.3c-1.3-1.3-2.5-2.4-3.6-3.6c0,0-0.1,0.1-0.2,0.2c-3.6,3.6-7.2,7.2-10.7,10.7
		c-0.1,0.1-0.2,0.2-0.2,0.3c-0.4,0-0.8,0-1.2,0c0.2-0.2,0.3-0.3,0.4-0.4c3.7-3.7,7.3-7.3,11-11c0.2-0.2,0.3-0.3,0.3-0.3
		c-1.2-1.2-2.4-2.4-3.5-3.5c-0.1,0.1-0.2,0.2-0.3,0.3c-3.7,3.7-7.3,7.3-11,11c-1.3,1.3-2.7,2.7-4,4c-0.4,0-0.7,0-1.1,0
		c0.1-0.1,0.2-0.3,0.3-0.4c2.2-2.2,4.3-4.3,6.5-6.5c0.1-0.1,0.3-0.2,0.5-0.2c0,0-0.1-0.1-0.2-0.2c-4.8,0-9.5,0-14.3,0
		c0,0,0,0.1-0.1,0.1c0.1,0.1,0.3,0.2,0.4,0.3c2.2,2.2,4.3,4.3,6.4,6.4c0.1,0.1,0.2,0.3,0.3,0.4c-0.4,0-0.7,0-1.1,0
		c-0.2-0.2-0.3-0.3-0.4-0.4c-2.5-2.5-5-5-7.5-7.5c-2.4-2.4-4.7-4.7-7.1-7.1c-0.1-0.1-0.3-0.2-0.3-0.3c-1.2,1.2-2.4,2.4-3.6,3.6
		c0.2,0.1,0.3,0.2,0.5,0.3c3.7,3.7,7.4,7.3,11,11c0.1,0.1,0.2,0.3,0.3,0.4c-0.4,0-0.8,0-1.2,0c-0.1-0.1-0.2-0.2-0.3-0.3
		c-3.5-3.5-7.1-7.1-10.6-10.6c-0.1-0.1-0.2-0.2-0.3-0.3c-1.2,1.2-2.4,2.4-3.5,3.5c0.1,0.1,0.2,0.2,0.3,0.4c2.3,2.3,4.6,4.6,6.9,6.9
		c0.1,0.1,0.2,0.3,0.3,0.4c-0.4,0-0.8,0-1.2,0c-0.1-0.1-0.2-0.2-0.2-0.3c-2.2-2.2-4.4-4.4-6.6-6.6c-0.1-0.1-0.2-0.2-0.2-0.2
		c-1.2,1.2-2.4,2.4-3.5,3.5c0.8,0.8,1.8,1.8,2.7,2.7c0.3,0.3,0.5,0.5,0.7,0.8c-0.4,0-0.7,0-1.1,0c-1-1-2-2-2.9-2.9c-1,1-2,2-3,2.9
		c-0.4,0-0.7,0-1.1,0c0.1-0.1,0.2-0.3,0.3-0.4c0.9-0.9,1.8-1.8,2.7-2.7c0.1-0.1,0.2-0.2,0.3-0.4c-0.3,0-0.5,0-0.7,0
		c-5.9,0-11.8,0-17.7,0c-4.5,0-9,0-13.6,0c-0.2,0-0.5,0-0.7,0.2c-1.1,1.1-2.2,2.2-3.3,3.3c-0.7,0-1.4,0-2.1,0c-1-1-2-1.9-3.1-2.9
		c-0.9,0.9-1.9,1.9-2.9,2.9c-0.4,0-0.7,0-1.1,0c0.7-0.7,1.3-1.4,2-2.1c0.5-0.5,1-1,1.4-1.4c-1.2-1.2-2.4-2.4-3.5-3.5
		c0,0-0.1,0.1-0.2,0.2c-2.2,2.2-4.4,4.4-6.6,6.6c-0.1,0.1-0.1,0.2-0.2,0.3c-0.4,0-0.8,0-1.2,0c0.1-0.1,0.2-0.3,0.3-0.4
		c2.3-2.3,4.6-4.6,6.9-6.9c0.2-0.2,0.3-0.2,0.4-0.3c-1.3-1.3-2.5-2.4-3.6-3.6c0,0-0.1,0.1-0.2,0.2c-3.6,3.6-7.2,7.2-10.7,10.7
		c-0.1,0.1-0.2,0.2-0.2,0.3c-0.4,0-0.8,0-1.2,0c0.2-0.2,0.3-0.3,0.4-0.4c3.7-3.7,7.3-7.3,11-11c0.2-0.2,0.3-0.3,0.3-0.3
		c-1.2-1.2-2.4-2.4-3.5-3.5c-0.1,0.1-0.2,0.2-0.3,0.3c-3.7,3.7-7.3,7.3-11,11c-1.3,1.3-2.7,2.7-4,4c-0.4,0-0.7,0-1.1,0
		c0.1-0.1,0.2-0.3,0.3-0.4c2.2-2.2,4.3-4.3,6.5-6.5c0.1-0.1,0.3-0.2,0.5-0.2c0,0-0.1-0.1-0.2-0.2c-4.8,0-9.5,0-14.3,0
		c0,0,0,0.1,0,0.1c0.1,0.1,0.2,0.2,0.3,0.3c2.2,2.2,4.3,4.3,6.4,6.4c0.1,0.1,0.2,0.3,0.3,0.4c-0.4,0-0.7,0-1.1,0
		c-0.2-0.2-0.3-0.3-0.4-0.4c-2.5-2.5-5-5-7.5-7.5c-2.4-2.4-4.7-4.7-7.1-7.1c-0.1-0.1-0.3-0.2-0.3-0.3c-1.2,1.2-2.4,2.4-3.6,3.6
		c0.2,0.1,0.3,0.2,0.5,0.3c3.7,3.7,7.4,7.3,11,11c0.1,0.1,0.2,0.3,0.3,0.4c-0.4,0-0.8,0-1.2,0c-0.1-0.1-0.2-0.2-0.3-0.3
		c-3.5-3.5-7.1-7.1-10.6-10.6c-0.1-0.1-0.2-0.2-0.3-0.3c-1.2,1.2-2.4,2.4-3.5,3.5c0.1,0.1,0.2,0.2,0.3,0.4c2.3,2.3,4.6,4.6,6.9,6.9
		c0.1,0.1,0.2,0.3,0.3,0.4c-0.4,0-0.8,0-1.2,0c-0.1-0.1-0.2-0.2-0.2-0.3c-2.2-2.2-4.4-4.4-6.6-6.6c-0.1-0.1-0.2-0.2-0.2-0.2
		c-1.2,1.2-2.4,2.4-3.5,3.5c0.8,0.8,1.8,1.8,2.7,2.7c0.3,0.3,0.5,0.5,0.7,0.8c-0.4,0-0.7,0-1.1,0c-1-1-2-2-2.9-2.9c-1,1-2,2-3,2.9
		c-0.4,0-0.7,0-1.1,0c0.1-0.1,0.2-0.3,0.3-0.4c0.9-0.9,1.8-1.8,2.7-2.7c0.1-0.1,0.2-0.2,0.3-0.4c-0.3,0-0.5,0-0.7,0
		c-5.9,0-11.8,0-17.7,0c-4.5,0-9,0-13.6,0c-0.2,0-0.5,0-0.7,0.2c-1.1,1.1-2.2,2.2-3.3,3.3c-0.7,0-1.4,0-2.1,0c-1-1-2-1.9-3.1-2.9
		c-0.9,0.9-1.9,1.9-2.9,2.9c-0.4,0-0.7,0-1.1,0c0.7-0.7,1.3-1.4,2-2.1c0.5-0.5,1-1,1.4-1.4c-1.2-1.2-2.4-2.4-3.5-3.5
		c0,0-0.1,0.1-0.2,0.2c-2.2,2.2-4.4,4.4-6.6,6.6c-0.1,0.1-0.1,0.2-0.2,0.3c-0.4,0-0.8,0-1.2,0c0.1-0.1,0.2-0.3,0.3-0.4
		c2.3-2.3,4.6-4.6,6.9-6.9c0.2-0.2,0.3-0.2,0.4-0.3c-1.3-1.3-2.5-2.4-3.6-3.6c0,0-0.1,0.1-0.2,0.2c-3.6,3.6-7.2,7.2-10.7,10.7
		c-0.1,0.1-0.2,0.2-0.2,0.3c-0.4,0-0.8,0-1.2,0c0.2-0.2,0.3-0.3,0.4-0.4c3.7-3.7,7.3-7.3,11-11c0.2-0.2,0.3-0.3,0.3-0.3
		c-1.2-1.2-2.4-2.4-3.5-3.5c-0.1,0.1-0.2,0.2-0.3,0.3c-3.7,3.7-7.3,7.3-11,11c-1.3,1.3-2.7,2.7-4,4c-0.4,0-0.7,0-1.1,0
		c0.1-0.1,0.2-0.3,0.3-0.4c2.2-2.2,4.3-4.3,6.5-6.5c0.1-0.1,0.3-0.2,0.5-0.2c0,0-0.1-0.1-0.2-0.2c-4.8,0-9.5,0-14.4,0
		c0.2,0.2,0.3,0.3,0.4,0.4c2.2,2.2,4.3,4.3,6.4,6.4c0.1,0.1,0.2,0.3,0.3,0.4c-0.4,0-0.7,0-1.1,0c-0.2-0.2-0.3-0.3-0.4-0.4
		c-2.5-2.5-5-5-7.5-7.5c-2.4-2.4-4.7-4.7-7.1-7.1c-0.1-0.1-0.3-0.2-0.3-0.3c-1.2,1.2-2.4,2.4-3.6,3.6c0.2,0.1,0.3,0.2,0.5,0.3
		c3.7,3.7,7.4,7.3,11,11c0.1,0.1,0.2,0.3,0.3,0.4c-0.4,0-0.8,0-1.2,0c-0.1-0.1-0.2-0.2-0.3-0.3c-3.5-3.5-7.1-7.1-10.6-10.6
		c-0.1-0.1-0.2-0.2-0.3-0.3c-1.2,1.2-2.4,2.4-3.5,3.5c0.1,0.1,0.2,0.2,0.3,0.4c2.3,2.3,4.6,4.6,6.9,6.9c0.1,0.1,0.2,0.3,0.3,0.4
		c-0.4,0-0.8,0-1.2,0c-0.1-0.1-0.2-0.2-0.2-0.3c-2.2-2.2-4.4-4.4-6.6-6.6c-0.1-0.1-0.2-0.2-0.2-0.2c-1.2,1.2-2.4,2.4-3.5,3.5
		c0.9,0.9,1.8,1.8,2.7,2.7c0.3,0.3,0.5,0.5,0.7,0.8c-0.4,0-0.7,0-1.1,0c-1-1-2-2-2.9-2.9c-1,1-2,2-3,2.9c-0.4,0-0.7,0-1.1,0
		c0.1-0.1,0.2-0.3,0.3-0.4c0.9-0.9,1.8-1.8,2.7-2.7c0.1-0.1,0.2-0.2,0.3-0.4c-0.3,0-0.5,0-0.7,0c-5.9,0-11.8,0-17.7,0
		c-4.5,0-9,0-13.6,0c-0.2,0-0.5,0-0.7,0.2c-1.1,1.1-2.2,2.2-3.3,3.3c-0.7,0-1.4,0-2.1,0c-1-1-2-1.9-3.1-2.9
		c-0.9,0.9-1.9,1.9-2.9,2.9c-0.4,0-0.7,0-1.1,0c0.7-0.7,1.3-1.4,2-2.1c0.5-0.5,1-1,1.4-1.4c-1.2-1.2-2.4-2.4-3.5-3.5
		c0,0-0.1,0.1-0.2,0.2c-2.2,2.2-4.4,4.4-6.6,6.6c-0.1,0.1-0.1,0.2-0.2,0.3c-0.4,0-0.8,0-1.2,0c0.1-0.1,0.2-0.3,0.3-0.4
		c2.3-2.3,4.6-4.6,6.9-6.9c0.2-0.2,0.3-0.2,0.4-0.3c-1.3-1.3-2.5-2.4-3.6-3.6c0,0-0.1,0.1-0.2,0.2c-3.6,3.6-7.2,7.2-10.7,10.7
		c-0.1,0.1-0.2,0.2-0.2,0.3c-0.4,0-0.8,0-1.2,0c0.2-0.2,0.3-0.3,0.4-0.4c3.7-3.7,7.3-7.3,11-11c0.2-0.2,0.3-0.3,0.3-0.3
		c-1.2-1.2-2.4-2.4-3.5-3.5c-0.1,0.1-0.2,0.2-0.3,0.3c-3.7,3.7-7.3,7.3-11,11c-1.3,1.3-2.7,2.7-4,4c-0.4,0-0.7,0-1.1,0
		c0.1-0.1,0.2-0.3,0.3-0.4c2.2-2.2,4.3-4.3,6.5-6.5c0.1-0.1,0.3-0.2,0.5-0.2c0,0-0.1-0.1-0.2-0.2c-4.8,0-9.5,0-14.3,0
		c0,0,0,0.1-0.1,0.1c0.1,0.1,0.3,0.2,0.4,0.3c2.2,2.2,4.3,4.3,6.4,6.4c0.1,0.1,0.2,0.3,0.3,0.4c-0.4,0-0.7,0-1.1,0
		c-0.2-0.2-0.3-0.3-0.4-0.4c-2.5-2.5-5-5-7.5-7.5c-2.4-2.4-4.7-4.7-7.1-7.1c-0.1-0.1-0.3-0.2-0.3-0.3c-1.2,1.2-2.4,2.4-3.6,3.6
		C71.7,5.9,71.9,6,72,6.1c3.7,3.7,7.4,7.3,11,11c0.1,0.1,0.2,0.3,0.3,0.4c-0.4,0-0.8,0-1.2,0c-0.1-0.1-0.2-0.2-0.3-0.3
		c-3.5-3.5-7.1-7.1-10.6-10.6c-0.1-0.1-0.2-0.2-0.3-0.3c-1.2,1.2-2.4,2.4-3.5,3.5c0.1,0.1,0.2,0.2,0.3,0.4c2.3,2.3,4.6,4.6,6.9,6.9
		c0.1,0.1,0.2,0.3,0.3,0.4c-0.4,0-0.8,0-1.2,0c-0.1-0.1-0.2-0.2-0.2-0.3c-2.2-2.2-4.4-4.4-6.6-6.6c-0.1-0.1-0.2-0.2-0.2-0.2
		c-1.2,1.2-2.4,2.4-3.5,3.5c0.9,0.9,1.8,1.8,2.7,2.7c0.3,0.3,0.5,0.5,0.7,0.8c-0.4,0-0.7,0-1.1,0c-1-1-2-2-2.9-2.9c-1,1-2,2-3,2.9
		c-0.4,0-0.7,0-1.1,0c0.1-0.1,0.2-0.3,0.3-0.4c0.9-0.9,1.8-1.8,2.7-2.7c0.1-0.1,0.2-0.2,0.3-0.4c-0.3,0-0.5,0-0.7,0
		c-5.9,0-11.8,0-17.7,0c-4.5,0-9,0-13.6,0c-0.2,0-0.5,0-0.7,0.2c-1.1,1.1-2.2,2.2-3.3,3.3c-0.7,0-1.4,0-2.1,0c-1-1-2-1.9-3.1-2.9
		c-0.9,0.9-1.9,1.9-2.9,2.9c-0.4,0-0.7,0-1.1,0c0.7-0.7,1.3-1.4,2-2.1c0.5-0.5,1-1,1.4-1.4c-1.2-1.2-2.4-2.4-3.5-3.5
		c0,0-0.1,0.1-0.2,0.2c-2.2,2.2-4.4,4.4-6.6,6.6c-0.1,0.1-0.1,0.2-0.2,0.3c-0.4,0-0.8,0-1.2,0c0.1-0.1,0.2-0.3,0.3-0.4
		c2.3-2.3,4.6-4.6,6.9-6.9c0.2-0.2,0.3-0.2,0.4-0.3c-1.3-1.3-2.5-2.4-3.6-3.6c0,0-0.1,0.1-0.2,0.2c-3.6,3.6-7.2,7.2-10.7,10.7
		c-0.1,0.1-0.2,0.2-0.2,0.3c-0.4,0-0.8,0-1.2,0c0.2-0.2,0.3-0.3,0.4-0.4c3.7-3.7,7.3-7.3,11-11C11.8,6.1,12,6,12.1,5.9
		c-1.3-1.3-2.4-2.4-3.7-3.7C8.4,2.4,8.3,2.5,8.2,2.6C5.6,5.2,3,7.8,0.4,10.4c-0.1,0.1-0.3,0.2-0.4,0.3c0-0.4,0-0.8,0-1.2
		c0.1-0.1,0.3-0.2,0.4-0.3C1.2,8.4,2,7.6,2.8,6.8C3,6.7,3.2,6.6,3.3,6.5c0-0.1-0.1-0.2-0.2-0.2c-1,0-2.1,0-3.2,0C0,6,0,5.7,0,5.4
		c1.3,0,2.5,0,3.8,0c0.2,0,0.5-0.1,0.6-0.2c1-1,2-1.9,2.9-2.9C7.4,2.2,7.4,2.2,7.5,2C7.2,2,7.1,2,6.9,2C4.6,2,2.3,2,0,2
		c0-0.4,0-0.8,0-1.2c0.4,0,0.8,0,1.3,0c0,0.1-0.1,0.2-0.2,0.3c2.2,0,4.4,0,6.6,0c0-0.2-0.1-0.2-0.2-0.3c0.7,0,1.3,0,2,0
		C9.4,1,9.2,1.2,9.1,1.4c1.2,1.2,2.4,2.4,3.5,3.5c1.3-1.3,2.7-2.7,4.2-4c0.4,0,0.7,0,1.1,0c-0.1,0.1-0.2,0.3-0.3,0.4
		c-1.3,1.3-2.7,2.7-4,4c-0.1,0.1-0.2,0.2-0.3,0.3c1.2,1.2,2.4,2.4,3.6,3.6c0.3-0.3,0.6-0.7,0.9-1c2.4-2.4,4.9-4.9,7.3-7.3
		c0.4,0,0.7,0,1.1,0C26.1,0.9,26,1,25.9,1.2c-2.7,2.7-5.4,5.4-8.2,8.2c-0.1,0.1-0.2,0.2-0.3,0.3c1.2,1.2,2.4,2.4,3.6,3.6
		c4.1-4.1,8.2-8.3,12.4-12.4c0.4,0,0.7,0,1.1,0c-0.1,0.2-0.2,0.3-0.4,0.5C30.1,5.3,26,9.4,21.9,13.5c-0.1,0.1-0.2,0.3-0.3,0.3
		c1.2,1.2,2.4,2.4,3.5,3.5C30.4,12,35.8,6.6,41.1,1.2c-0.1-0.1-0.2-0.3-0.3-0.4c0.4,0,0.7,0,1.1,0c0.1,0,0.3,0.1,0.4,0.1
		c2.2,0,4.4,0,6.5,0c0.1,0,0.3,0,0.4-0.1c0.7,0,1.4,0,2.1,0c-0.2,0.2-0.3,0.3-0.4,0.5c4,4,8,8,11.9,11.9c1.2-1.1,2.3-2.3,3.5-3.5
		C63.6,6.8,60.8,4,58,1.2c0.2-0.2,0.3-0.3,0.4-0.5c0.4,0,0.7,0,1.1,0c-0.1,0.2-0.2,0.3-0.3,0.5c2.6,2.6,5.2,5.2,7.7,7.7
		c1.2-1.2,2.3-2.3,3.5-3.5c-1.3-1.3-2.8-2.8-4.2-4.2c0.1-0.2,0.2-0.3,0.3-0.5c0.4,0,0.8,0,1.2,0c-0.1,0.2-0.3,0.3-0.3,0.5
		c1.2,1.2,2.4,2.4,3.6,3.6c1.1-1.1,2.3-2.3,3.5-3.5C74.4,1.2,74.2,1,74,0.9c0.7,0,1.4,0,2.1,0C76.1,1,76,1,75.9,1.2
		c0.3,0,0.4,0,0.6,0c2,0,4.1,0,6.1,0c0.3,0,0.5-0.1,0.7-0.4c0.4,0,0.7,0,1.1,0c0,0.1-0.1,0.2-0.2,0.4c0.2,0,0.4,0,0.5,0c2,0,4,0,6,0
		c0.3,0,0.6,0,0.8-0.4c0.4,0,0.7,0,1.1,0c0,0.1-0.1,0.2-0.2,0.4c0.2,0,0.4,0,0.6,0c2,0,4,0,6,0c0.3,0,0.7,0,0.8-0.4
		c0.4,0,0.7,0,1.1,0c0,0.1-0.1,0.2-0.2,0.3c2.2,0,4.4,0,6.6,0c0-0.2-0.1-0.2-0.2-0.3c0.7,0,1.3,0,2,0c-0.2,0.2-0.4,0.4-0.5,0.6
		c1.2,1.2,2.4,2.4,3.5,3.5c1.3-1.3,2.7-2.7,4.2-4c0.4,0,0.7,0,1.1,0c-0.1,0.1-0.2,0.3-0.3,0.4c-1.3,1.3-2.7,2.7-4,4
		c-0.1,0.1-0.2,0.2-0.3,0.3c1.2,1.2,2.4,2.4,3.6,3.6c0.3-0.3,0.6-0.7,0.9-1c2.4-2.4,4.9-4.9,7.3-7.3c0.4,0,0.7,0,1.1,0
		c-0.1,0.2-0.2,0.3-0.3,0.4c-2.7,2.7-5.4,5.4-8.2,8.2c-0.1,0.1-0.2,0.2-0.3,0.3c1.2,1.2,2.4,2.4,3.5,3.6c4.1-4.1,8.2-8.3,12.4-12.4
		c0.4,0,0.7,0,1.1,0c-0.1,0.2-0.2,0.3-0.4,0.5c-4.1,4.1-8.2,8.2-12.3,12.3c-0.1,0.1-0.2,0.3-0.3,0.3c1.2,1.2,2.4,2.4,3.5,3.5
		C130,12,135.4,6.6,140.8,1.2c-0.1-0.1-0.2-0.3-0.3-0.4c0.4,0,0.7,0,1.1,0c0.1,0,0.3,0.1,0.4,0.1c2.2,0,4.4,0,6.5,0
		c0.1,0,0.3,0,0.4-0.1c0.7,0,1.4,0,2.1,0c-0.2,0.2-0.3,0.3-0.4,0.5c4,4,8,8,11.9,11.9c1.2-1.2,2.3-2.3,3.5-3.5
		c-2.7-2.7-5.5-5.5-8.4-8.3C158.1,0.2,158.2,0,158.3-0.1z M76.4,1.1c0,0.1,0,0.1,0.1,0.2c1,1,2,2,3,3c0.1,0.1,0.3,0.2,0.5,0.2
		c7.9,0,15.8,0,23.8,0c0.2,0,0.4-0.1,0.5-0.2c1-1,2-2,3-3c0,0,0-0.1,0.1-0.2C97,1.1,86.7,1.1,76.4,1.1z M406.8,1.1
		c-10.4,0-20.7,0-31.1,0c0,0.1,0.1,0.2,0.1,0.2c1,1,2,2,3,3c0.1,0.1,0.3,0.2,0.5,0.2c7.9,0,15.8,0,23.7,0c0.2,0,0.3,0,0.5-0.1
		C404.6,3.3,405.7,2.2,406.8,1.1z M176.1,1.1c0,0.1,0.1,0.2,0.1,0.2c1,1,2,2,3,3c0.1,0.1,0.3,0.2,0.5,0.2c7.9,0,15.8,0,23.7,0
		c0.2,0,0.5-0.1,0.7-0.3c1-0.9,1.9-1.8,2.8-2.8c0.1-0.1,0.2-0.2,0.2-0.3C196.8,1.1,186.5,1.1,176.1,1.1z M307,1.1
		c-10.4,0-20.7,0-31.1,0c0,0.1,0,0.1,0.1,0.2c1,1,2,2,3.1,3.1c0.1,0.1,0.3,0.2,0.5,0.2c7.9,0,15.8,0,23.7,0c0.2,0,0.3,0,0.5-0.1
		C304.8,3.3,305.9,2.2,307,1.1z M61.8,12.4c-1-1-2-2-3-3c-0.2-0.2-0.5-0.3-0.7-0.3c-8,0-15.9,0-23.9,0c-0.2,0-0.5,0.1-0.7,0.3
		c-0.9,0.9-1.8,1.8-2.7,2.7c-0.1,0.1-0.2,0.2-0.3,0.3C41,12.4,51.3,12.4,61.8,12.4z M329.8,12.4c10.5,0,20.8,0,31.3,0
		c-1-1-1.9-1.9-2.9-2.9c-0.3-0.3-0.6-0.4-1-0.4c-7.7,0-15.5,0-23.2,0c-0.7,0-1.2,0.2-1.7,0.7C331.6,10.6,330.7,11.5,329.8,12.4z
		 M230,12.3c10.5,0,20.8,0,31.3,0c-1-1-1.9-1.9-2.9-2.9c-0.3-0.3-0.6-0.4-1-0.4c-7.3,0-14.7,0-22,0c-0.7,0-1.5-0.2-2.1,0.1
		c-0.6,0.3-1,0.9-1.5,1.4C231.2,11.1,230.7,11.7,230,12.3z M161.6,12.4c-1-1-1.9-1.8-2.8-2.8c-0.3-0.4-0.7-0.5-1.2-0.5
		c-1.9,0-3.9,0-5.8,0c-5.9,0-11.8,0-17.6,0c-0.4,0-0.7,0.1-0.9,0.4c-0.7,0.7-1.5,1.5-2.2,2.2c-0.2,0.2-0.5,0.4-0.7,0.6
		c0,0,0.1,0.1,0.1,0.1C140.7,12.4,151.1,12.4,161.6,12.4z M234.2,8.1c0,0,0.1,0.1,0.1,0.1c7.6,0,15.2,0,22.8,0c0-0.1,0-0.1-0.1-0.2
		c-1-1-2-2-2.9-2.9C254,5,253.8,5,253.6,5c-5.2,0-10.5,0-15.7,0c-0.2,0-0.5,0.1-0.7,0.3c-0.8,0.7-1.5,1.5-2.2,2.2
		C234.7,7.7,234.5,7.9,234.2,8.1z M334,8.2c7.7,0,15.3,0,23,0c-0.2-0.2-0.2-0.3-0.3-0.4c-0.8-0.8-1.6-1.6-2.4-2.4
		c-0.3-0.3-0.7-0.5-1.1-0.5c-4.9,0-9.7,0-14.5,0c-1,0-1.7,0.2-2.3,1C335.6,6.7,334.8,7.4,334,8.2z M134.4,8.1c0,0,0.1,0.1,0.1,0.2
		c7.6,0,15.2,0,22.8,0c0-0.1,0-0.1-0.1-0.2c-1-1-2-2-2.9-2.9C154.2,5,154,5,153.8,5c-5.3,0-10.5,0-15.8,0c-0.2,0-0.4,0.1-0.6,0.3
		c-0.7,0.6-1.2,1.2-1.9,1.8C135.2,7.4,134.8,7.8,134.4,8.1z M57.5,8.2c0-0.1,0-0.1-0.1-0.2c-1-1-2-2-2.9-2.9C54.4,5,54.2,5,54,5
		c-5.2,0-10.5,0-15.7,0c-0.2,0-0.5,0.1-0.7,0.3c-0.8,0.7-1.5,1.5-2.2,2.2c-0.2,0.2-0.5,0.4-0.8,0.7c0,0,0.1,0.1,0.1,0.1
		C42.3,8.2,49.9,8.2,57.5,8.2z M203,5.4c-7.6,0-15.1,0-22.7,0c1,1,2,2,3,3c0.1,0.1,0.3,0.2,0.5,0.2c5.2,0,10.4,0,15.6,0
		c0.2,0,0.3,0,0.5-0.2C200.9,7.4,201.9,6.4,203,5.4z M302.7,5.4c-7.6,0-15.1,0-22.6,0c1,1,2,2,3,3c0.1,0.1,0.3,0.2,0.5,0.2
		c5.2,0,10.4,0,15.6,0c0.2,0,0.3,0,0.5-0.2C300.7,7.4,301.7,6.4,302.7,5.4z M80.6,5.3c0.1,0.1,0.1,0.2,0.2,0.2
		c0.9,0.9,1.8,1.9,2.8,2.8c0.1,0.1,0.4,0.2,0.6,0.2c5.2,0,10.3,0,15.5,0c0.2,0,0.5-0.1,0.7-0.3c0.9-0.8,1.7-1.7,2.6-2.6
		c0.1-0.1,0.2-0.2,0.2-0.3C95.6,5.3,88.1,5.3,80.6,5.3z M379.9,5.4c1.1,1.1,2,2.1,3,3c0.1,0.1,0.3,0.2,0.5,0.2c5.2,0,10.4,0,15.5,0
		c0.2,0,0.5-0.1,0.7-0.3c0.7-0.7,1.4-1.4,2.2-2.2c0.2-0.2,0.5-0.4,0.7-0.6c0,0-0.1-0.1-0.1-0.1C395,5.4,387.5,5.4,379.9,5.4z
		 M153.2,4.1c-0.2-0.2-0.2-0.3-0.3-0.3c-0.9-0.9-1.7-1.8-2.7-2.6c-0.2-0.2-0.5-0.3-0.7-0.3c-2.5,0-4.9,0-7.4,0
		c-0.2,0-0.5,0.1-0.7,0.3c-0.9,0.8-1.8,1.8-2.7,2.6c-0.1,0.1-0.2,0.2-0.3,0.3C143.5,4.1,148.3,4.1,153.2,4.1z M238.4,4.1
		c4.9,0,9.7,0,14.6,0c-0.1-0.1-0.1-0.2-0.2-0.2c-1-1-1.9-1.9-2.9-2.9c-0.1-0.1-0.3-0.2-0.5-0.2c-2.5,0-5,0-7.4,0
		c-0.2,0-0.5,0.1-0.6,0.3c-0.9,0.8-1.7,1.7-2.6,2.6C238.7,3.7,238.6,3.9,238.4,4.1z M352.8,4.1c0-0.1-0.1-0.2-0.1-0.2
		c-1-1-2-2-2.9-2.9c-0.1-0.1-0.3-0.2-0.5-0.2c-2.5,0-4.9,0-7.4,0c-0.2,0-0.5,0.1-0.7,0.3c-0.9,0.9-1.8,1.8-2.7,2.7
		c-0.1,0.1-0.2,0.2-0.2,0.3C343.1,4.1,347.9,4.1,352.8,4.1z M38.8,4.1c4.9,0,9.7,0,14.6,0c-0.1-0.1-0.1-0.2-0.2-0.2
		c-1-1-1.9-1.9-2.9-2.9c-0.1-0.1-0.3-0.2-0.5-0.2c-2.5,0-5,0-7.4,0c-0.2,0-0.5,0.1-0.6,0.3c-0.9,0.8-1.7,1.7-2.6,2.6
		C39.1,3.7,39,3.9,38.8,4.1z"/>
</g>
</svg>
